<svg xmlns="http://www.w3.org/2000/svg" width="76.687" height="63" viewBox="0 0 76.687 63"><defs><style>.cls-1{fill:#fff;fill-rule:evenodd}</style></defs><path id="arrow-menu" class="cls-1" d="M102.168 152.554a86.44 86.44 0 0 1-3-2.26 89.53 89.53 0 0 1-5.385-4.6 1.511 1.511 0 0 0-2.13.075 1.5 1.5 0 0 0 .076 2.12 92.393 92.393 0 0 0 8.667 7.098 1.5 1.5 0 1 0 1.772-2.433zM80.62 129.885a1.51 1.51 0 0 0-2.075-.483 1.494 1.494 0 0 0-.486 2.064 77.556 77.556 0 0 0 6.624 9.058 1.5 1.5 0 0 0 2.3-1.932 74.747 74.747 0 0 1-6.363-8.707zm59.68 36.083c-.033 0-.462.034-1.235.034a48.325 48.325 0 0 1-9.327-1.027 1.5 1.5 0 1 0-.6 2.938 51.346 51.346 0 0 0 9.93 1.087c.961 0 1.476-.043 1.476-.043a1.5 1.5 0 1 0-.244-2.989zm-19.99-3.675a72.311 72.311 0 0 1-9.829-4.483 1.51 1.51 0 0 0-2.046.59 1.494 1.494 0 0 0 .592 2.036 75.191 75.191 0 0 0 10.241 4.67 1.485 1.485 0 0 0 .521.093 1.5 1.5 0 0 0 .524-2.906zm-42.019-48.676a1.5 1.5 0 0 0-.4-2.084L69.742 106l-4.393 9.329a1.505 1.505 0 0 0 2.729 1.272l1.9-4.033a54.4 54.4 0 0 0 3.306 9.865 1.506 1.506 0 0 0 2.764-1.2 50.953 50.953 0 0 1-3.163-9.476l3.313 2.249a1.512 1.512 0 0 0 2.093-.389z" transform="translate(-65.219 -106)"/></svg>