<svg id="back-text" xmlns="http://www.w3.org/2000/svg" width="338" height="336" viewBox="0 0 338 336"><defs><style>.cls-1{fill:#004559}.cls-2{fill:#002d3a;fill-rule:evenodd;opacity:.3}</style></defs><path class="cls-1" d="M12 10h326v326H12z"/><path class="cls-2" d="M551.2 1332h-16.97L403 1463.23v16.98zm131.224 0h-16.976L403 1594.47v16.97zm-43.741 0h-16.976L403 1550.72v16.98zm-43.741 0h-16.976L403 1506.98v16.97zm-174.964 0H403v16.97zm43.741 0h-16.976L403 1375.75v16.97zm43.741 0h-16.976L403 1419.49v16.97zM729 1416.65v-16.97L470.7 1658h16.971zm0 174.98v-16.98L645.661 1658h16.971zM726.16 1332h-16.97L403 1638.21v16.98zm2.84 303.37v-16.97l-39.6 39.6h16.971zm0-87.49v-16.97L601.921 1658h16.971zm0-43.74v-16.97L558.18 1658h16.97zm0-131.24v-16.97L426.956 1658h16.971zm0 87.49v-16.97L514.438 1658h16.971z" transform="translate(-403 -1332)"/></svg>