<svg xmlns="http://www.w3.org/2000/svg" width="326" height="326" viewBox="0 0 326 326"><defs><style>.cls-1{fill:#002d3a;fill-rule:evenodd;opacity:.3}</style></defs><path class="cls-1" d="M148.2 0h-16.97L0 131.235v16.972zm131.219 0h-16.971L0 262.469v16.972zm-43.741 0h-16.971L0 218.724V235.7zm-43.741 0h-16.971L0 174.979v16.973zM16.973 0H0v16.974zm43.741 0H43.743L0 43.747v16.972zm43.741 0H87.484L0 87.491v16.972zM326 84.65V67.677L67.7 326h16.968zm0 174.977v-16.972L242.661 326h16.971zM323.16 0h-16.971L0 306.213v16.973zM326 303.371V286.4L286.4 326h16.972zm0-87.488v-16.972L198.921 326h16.971zm0-43.745v-16.972L155.18 326h16.97zM326 40.9V23.932L23.956 326h16.971zm0 87.489v-16.968L111.438 326h16.971z"/></svg>