<svg xmlns="http://www.w3.org/2000/svg" viewBox="0 0 836.58 292.09"><defs><style>.cls-1{fill:#1eccff}.cls-2{fill:#424242}</style></defs><title>Asset 1</title><g id="Layer_2" data-name="Layer 2"><g id="Layer_1-2" data-name="Layer 1"><path class="cls-1" d="M619.8 215.36a113.53 113.53 0 0 0 24.91 38C667 276 696.41 287.58 725.88 287V172.23zM355.08 71.1a115.91 115.91 0 0 0-24.92 124.3l106.09-43.13V37.48c-29.48-.63-58.89 10.96-81.17 33.62zM214.28 76a115.76 115.76 0 0 1 0 162.34C192 261 162.59 272.62 133.11 272V42.42C162.59 41.8 192 53.39 214.28 76z"/><path class="cls-2" d="M205.16 81.34C183.43 59.28 154.82 47.43 124.61 48h-2.45v227.67l2.45.05h2c29 0 57.54-12.12 78.5-33.45a114.75 114.75 0 0 0 0-160.95zm-3.56 157.44c-20.21 20.56-46.56 31.86-74.44 32V53c27.92.12 54.27 11.38 74.44 31.86a109.75 109.75 0 0 1 0 153.93zM33 81.32a114.78 114.78 0 0 0-25.56 121h-.12l.91 2.3a112.48 112.48 0 0 0 24.67 37.8c21.32 21.62 49.16 33.46 78.59 33.46h4.4V48h-2.45C83.27 47.38 54.68 59.24 33 81.32zm3.56 3.51C56.68 64.34 83 53.07 110.94 53v107.2L12 200.33a109.83 109.83 0 0 1 24.51-115.5zm74.38 186.05c-27.85-.17-54.21-11.46-74.43-32a107.55 107.55 0 0 1-22.69-33.77l97.12-39.43zm436.79-109.09a114 114 0 0 0-33-80.45C493.05 59.27 464.46 47.41 434.24 48h-2.45v112.29l-103.68 42.09.91 2.3a112.45 112.45 0 0 0 24.71 37.74c21.33 21.62 49.17 33.46 78.59 33.46h4.41v-.09c28.87-.12 57.19-12.23 78-33.45a114.25 114.25 0 0 0 33-80.55zm-116 109.09c-27.86-.17-54.21-11.46-74.44-32a107.68 107.68 0 0 1-22.68-33.77l97.12-39.43zm5.06-.14V53c27.91.13 54.26 11.4 74.43 31.88a109.74 109.74 0 0 1 0 153.92c-19.91 20.2-46.91 31.8-74.43 31.94z"/><path class="cls-2" d="M425.19 41.46l-2.46-.05c-30.24-.57-58.82 11.27-80.54 33.34A114.84 114.84 0 0 0 317.49 198l.94 2.33 106.76-43.36zm-5 112.11l-99 40.19a109.85 109.85 0 0 1 24.53-115.5c20.17-20.48 46.51-31.74 74.44-31.87zm383.45-72.23C782.12 59.49 753.89 47.65 724 48h-1c-30.21-.59-58.81 11.27-80.55 33.35a114.83 114.83 0 0 0-24.7 123.21l.93 2.33 102-41.41v110.19l2.45.05h2c29 0 57.54-12.13 78.51-33.46a114.76 114.76 0 0 0 0-160.94zm-83.22 78.81l-99 40.18A109.83 109.83 0 0 1 646 84.83c20.16-20.49 46.5-31.76 74.42-31.83zm79.65 78.62c-20.21 20.57-46.55 31.86-74.43 32V53c27.91.13 54.26 11.4 74.43 31.88a109.74 109.74 0 0 1 0 153.92z"/><path class="cls-2" d="M606.87 220.9a112.35 112.35 0 0 0 24.7 37.71c21.34 21.64 49.19 33.48 78.6 33.48h4.4V174.48L606 218.59zm102.7-39v105.19c-27.84-.17-54.2-11.47-74.44-32a107.51 107.51 0 0 1-22.67-33.75zM456.53.59a2 2 0 0 0-2.87 0l-29.84 29.88a2.05 2.05 0 0 0-.63 1.43l-3.33 11.5a2 2 0 0 0 1.38 2.52 1.94 1.94 0 0 0 1.12 0l12.06-3.38h.1l.2-.08.17-.09.16-.11.17-.14.08-.07 29.89-29.89a2 2 0 0 0 0-2.87zm-8 10.83l5.79 5.79-20.41 20.49-5.79-5.79zm-22.22 24.42l3.69 3.72-5.2 1.44zm30.92-21.49l-5.78-5.79 3.65-3.66 5.78 5.8zm-42.66 144.2l6.43-2.61 1.69-1.69-1.91-1.91-6.21 6.21zm-30.11 12.23l6.43-2.61 31.8-31.8-1.91-1.91-36.32 36.32zm15.05-6.11l6.43-2.62 16.75-16.74-1.91-1.91-21.27 21.27zM337.6 83.55a110.64 110.64 0 0 0-9.6 13.39l37.52-37.53a112.19 112.19 0 0 0-13.27 9.45zm31.81 93.34l6.43-2.61 46.85-46.85-1.91-1.9-51.37 51.36zM412.7 44.21L312.24 144.67c-.13 1.37-.22 2.74-.3 4.12L416.75 44c-1.35 0-2.7.1-4.05.21zm-90.55 63.73c-1 2.18-1.95 4.4-2.82 6.63l63.72-63.71c-2.22.84-4.42 1.77-6.59 2.77zm-8.44 26.32c-.29 1.52-.54 3.05-.77 4.58L407 44.8c-1.51.2-3 .43-4.52.7zm2.92-11.86q-.79 2.63-1.47 5.29L396 46.84q-2.62.63-5.22 1.4zm22.67 66.72l6.43-2.61 76.96-76.95-1.91-1.91-81.48 81.47zm15.06-6.11l6.43-2.61 61.9-61.9-1.91-1.92-66.42 66.43zM312 162.78c.08 1.17.18 2.35.29 3.52l110.4-110.38-1.91-1.92z"/><path class="cls-2" d="M311.76 154.08v3.8L422.69 47l-1.91-1.91zm2.42 24.4c.22 1 .45 2.08.7 3.12L422.69 73.8l-1.91-1.91zm-1.33-7.6q.22 1.65.51 3.3L422.69 64.86 420.78 63zm11.4 24.35l6.43-2.61 92.01-92-1.91-1.91-96.53 96.52zm-8.25-9.58c.28 1 .57 2 .87 2.95L422.69 82.74l-1.91-1.91zm2.09 6.8c.33.94.67 1.87 1 2.79l103.6-103.56-1.91-1.91zm355.08 90.31c.93.35 1.87.69 2.81 1l36.26-36.26v-3.82zm-6.32-2.62c.88.4 1.77.79 2.66 1.16l42.73-42.73v-3.82zm-17.13-9.69c.75.53 1.52 1 2.28 1.54l60.24-60.24v-3.82zm5.42 3.55c.8.49 1.6 1 2.4 1.42l54.7-54.7v-3.82zm5.7 3.21c.84.44 1.68.87 2.53 1.29l48.87-48.87v-3.82zm41.57 12.06c1.21.1 2.41.17 3.61.22l6.22-6.22v-3.82zM679.84 285c1 .3 2 .58 3 .85l29.43-29.43v-3.82zm31.21 4.58h1.19v-1.18zm-16.65-1.23c1.12.17 2.24.32 3.36.46l14.48-14.48v-3.82zm-7.5-1.44c1.05.24 2.1.46 3.15.67l22.19-22.19v-3.82zm-42.34-20.24c.72.56 1.44 1.11 2.17 1.65l65.51-65.51V199zm-32.03-39.48c.41.85.84 1.7 1.27 2.54l19.46-19.46-6.43 2.61zm6.47 11.46c.49.77 1 1.54 1.52 2.3L663.37 198l-6.43 2.62zm-3.4-5.59c.45.81.92 1.62 1.39 2.42l31.33-31.32-6.43 2.61zM609.78 221c.37.9.75 1.8 1.14 2.69l7.29-7.29-6.43 2.6zm16.69 28c.57.7 1.15 1.39 1.74 2.08l65.27-65.26-6.43 2.61zm-3.9-5c.54.74 1.08 1.46 1.64 2.19l54.21-54.22-6.42 2.57zM635 258.33c.65.63 1.3 1.26 2 1.87l75.26-75.27v-3.82zm-4.38-4.54c.61.66 1.23 1.32 1.85 2l76.06-76.06-6.43 2.62zm9.04 8.84c.68.6 1.37 1.18 2.06 1.76l70.52-70.52v-3.82zm-515-72.01v3.82l93.22-93.22c-.5-.77-1-1.53-1.52-2.3zm0 44.7v3.82l107-107c-.27-1-.55-2-.85-3zm0 8.94v3.82l108.7-108.7c-.22-1-.44-2.09-.69-3.13zm0-26.82v3.82l102.43-102.43c-.37-.89-.76-1.78-1.15-2.67zm0-17.88v3.82l96.58-96.58c-.46-.81-.93-1.61-1.4-2.41zm0 8.94v3.82l99.66-99.66c-.42-.85-.84-1.7-1.28-2.54zm0 44.7v3.8l110-110c-.15-1.11-.31-2.22-.49-3.33zm0-26.82v3.82l104.88-104.88c-.32-.94-.65-1.88-1-2.82zM152.58 270q2.67-.69 5.33-1.51l72.34-72.34q.85-2.69 1.58-5.4zm-11.15 2.19c1.52-.22 3-.46 4.56-.75l87.39-87.39q.47-2.31.84-4.65zm-16.77-10.06V266l110.75-110.79c-.07-1.19-.15-2.38-.26-3.56zm48.03.5l51.56-51.56c1.11-2.27 2.13-4.57 3.08-6.9l-61.48 61.48c2.3-.92 4.59-1.93 6.84-3.02zm62.9-102.48L124.66 271.07v2.15h1.66L235.58 164c.03-1.3.03-2.58.01-3.85zM131.56 273.12c1.36-.06 2.72-.15 4.08-.26L235 173.51c.15-1.4.27-2.79.36-4.18zm-6.9-216.59v3.82l9.58-9.58c-1.21-.09-2.41-.16-3.62-.2zm0 44.69V105l45.26-45.26c-.88-.39-1.77-.78-2.66-1.15zm0-8.94v3.82l38.92-38.92c-.93-.35-1.87-.68-2.81-1zm0 17.88V114l51.28-51.3c-.84-.44-1.68-.86-2.53-1.28zm0 8.94v3.82l57-57c-.8-.48-1.6-1-2.41-1.41zm0 62.58v3.82l89.59-89.59c-.53-.73-1.08-1.46-1.63-2.19zm0-107.27v3.81l25.15-25.14c-1.05-.23-2.1-.46-3.16-.66zm0 8.94v3.81l32.23-32.22c-1-.3-2-.58-3-.85zm0-17.88v3.81l17.62-17.61c-1.12-.17-2.24-.32-3.37-.45zm0 89.39v3.82l77.15-77.14-2-1.87zm0 8.94v3.82l81.54-81.54c-.6-.66-1.22-1.32-1.85-2zm0 8.94v3.82l85.69-85.69c-.57-.7-1.15-1.39-1.74-2.08zm0-35.74v3.82l67.6-67.59c-.72-.56-1.45-1.11-2.18-1.65zm0 8.92v3.82l72.5-72.5c-.68-.59-1.37-1.18-2.06-1.75zm0-17.92v3.82l62.43-62.43c-.75-.52-1.52-1-2.28-1.53z"/></g></g></svg>