<svg xmlns="http://www.w3.org/2000/svg" viewBox="0 0 1728 780.47"><defs><style>.cls-1{fill:#424242}.cls-2{fill:#02aeed}.cls-3{fill:#fff}.cls-4{fill:#231f20}.cls-5{fill:#363636}</style></defs><title>Asset 2</title><g id="Layer_2" data-name="Layer 2"><g id="Layer_1-2" data-name="Layer 1"><path class="cls-1" d="M193.24 717.24h-5.4v-5h5.4zm-15.4 0h-10v-5h10zm-20 0h-10v-5h10zm-20 0h-10v-5h10zm-20 0h-10v-5h10zm-20 0h-10v-5h10zm-20 0h-10v-5h10zm-20 0h-10v-5h10z"/><path class="cls-1" d="M202 725.74a11 11 0 1 1 11-11 11 11 0 0 1-11 11zm0-17a6 6 0 1 0 6 6 6 6 0 0 0-6-6zm-162.88 17a11 11 0 1 1 11-11 11 11 0 0 1-11 11zm0-17a6 6 0 1 0 6 6 6 6 0 0 0-6-6z"/><path class="cls-2" d="M32.59 638.26l-1.31-8.9 336.97-49.49 168.28-51.79.64-.01 164.35-2.88 166.42-55.52 166.52-81.16 166.5-108.01 1.03-.12 166.83-20.44 163.92-49.65 156.39-139.46 5.99 6.72-157.87 140.78-166.57 50.44-166.57 20.41-165.21 107.18-.25.12-167.3 81.54-.28.09-168.01 56.06-.69.01-164.41 2.88-167.72 51.61-.34.05-337.31 49.54z"/><circle class="cls-3" cx="37.13" cy="632.34" r="18.32"/><path class="cls-2" d="M37.13 655.17a22.82 22.82 0 1 1 16.14-39 22.83 22.83 0 0 1-16.14 39zm0-36.64a13.81 13.81 0 1 0 9.77 4 13.78 13.78 0 0 0-9.77-4z"/><circle class="cls-3" cx="200.72" cy="608.6" r="18.32"/><path class="cls-2" d="M200.72 631.41a22.82 22.82 0 1 1 16.13-38.95 22.81 22.81 0 0 1-16.13 38.95zm0-36.63a13.82 13.82 0 0 0-9.78 23.6 13.82 13.82 0 1 0 19.55-19.55 13.69 13.69 0 0 0-9.77-4.05z"/><circle class="cls-3" cx="367.8" cy="583.69" r="18.32"/><path class="cls-2" d="M367.8 606.51a22.82 22.82 0 1 1 16.14-39 22.82 22.82 0 0 1-16.14 39zm0-36.64a13.83 13.83 0 1 0 9.77 4 13.73 13.73 0 0 0-9.77-4z"/><circle class="cls-3" cx="536.04" cy="533.19" r="18.32"/><path class="cls-2" d="M536 556a22.79 22.79 0 1 1 16.14-6.67A22.74 22.74 0 0 1 536 556zm0-36.63a13.81 13.81 0 1 0 9.77 4 13.72 13.72 0 0 0-9.77-4z"/><circle class="cls-3" cx="698.46" cy="528.06" r="18.32"/><path class="cls-2" d="M698.46 550.88a22.82 22.82 0 1 1 16.14-39 22.82 22.82 0 0 1-16.14 39zm0-36.64a13.83 13.83 0 1 0 9.78 4 13.74 13.74 0 0 0-9.78-4z"/><circle class="cls-3" cx="865.84" cy="475.66" r="18.32"/><path class="cls-2" d="M865.84 498.47a22.82 22.82 0 1 1 16.14-39 22.81 22.81 0 0 1-16.14 39zm0-36.62a13.82 13.82 0 1 0 9.77 4 13.78 13.78 0 0 0-9.77-4z"/><path class="cls-3" d="M1043.55 385.19a18.32 18.32 0 1 1-25.91 0 18.32 18.32 0 0 1 25.91 0z"/><path class="cls-2" d="M1030.59 421a22.81 22.81 0 1 1 16.14-6.67 22.76 22.76 0 0 1-16.14 6.67zm0-36.63a13.82 13.82 0 0 0-9.77 23.59 13.82 13.82 0 1 0 9.77-23.59z"/><circle class="cls-3" cx="1197.67" cy="285.98" r="18.32"/><path class="cls-2" d="M1197.67 308.8a22.83 22.83 0 1 1 16.14-39 22.83 22.83 0 0 1-16.14 39zm0-36.65a13.83 13.83 0 1 0 9.78 4.05 13.73 13.73 0 0 0-9.78-4.05z"/><circle class="cls-3" cx="1362.42" cy="263.4" r="18.32"/><path class="cls-2" d="M1362.42 286.22a22.82 22.82 0 1 1 16.14-39 22.83 22.83 0 0 1-16.14 39zm0-36.64a13.82 13.82 0 1 0 9.78 4 13.78 13.78 0 0 0-9.78-4z"/><circle class="cls-3" cx="1529.5" cy="215.22" r="18.32"/><path class="cls-2" d="M1529.5 238a22.82 22.82 0 1 1 16.14-39 22.82 22.82 0 0 1-16.14 39zm0-36.64a13.82 13.82 0 1 0 9.78 4 13.72 13.72 0 0 0-9.78-3.96z"/><circle class="cls-3" cx="1688.44" cy="77.74" r="18.33"/><path class="cls-2" d="M1688.44 100.57a22.83 22.83 0 1 1 16.14-39 22.83 22.83 0 0 1-16.14 39zm0-36.65a13.81 13.81 0 1 0 9.78 4 13.77 13.77 0 0 0-9.78-4z"/><path class="cls-1" d="M217.59 717.24v-5h10v5zm20 0v-5h10v5zm20 0v-5h10v5zm20 0v-5h10v5zm20 0v-5h10v5zm20 0v-5h10v5zm20 0v-5h10v5zm20.16 0h-.16v-5h2.65v5z"/><path class="cls-1" d="M369 725.6a11 11 0 0 1 0-22 11 11 0 0 1 0 22zm0-17a6 6 0 0 0 0 12 6 6 0 0 0 0-12zm15.6 8.78v-5h10v5zm20 0v-5h10v5zm20 0v-5h10v5zm20 0v-5h10v5zm20 0v-5h10v5zm20 0v-5h10v5zm20 0v-5h10v5zm20.15 0h-.16v-5h2.66v5z"/><path class="cls-1" d="M536 725.74a11 11 0 0 1 0-22 11 11 0 0 1 0 22zm0-17a6 6 0 0 0-6 6 6 6 0 0 0 6 6 6 6 0 1 0 0-12z"/><path class="cls-1" d="M546.93 717.38v-5h10v5zm20 0v-5h10v5zm20 0v-5h10v5zm20 0v-5h10v5zm20 0v-5h10v5zm20 0v-5h10v5zm20 0v-5h10v5zm20.16 0h-.16v-5h2.65v5z"/><path class="cls-1" d="M698.31 725.74a11 11 0 0 1-7.79-18.74 10.91 10.91 0 0 1 7.77-3.23 11 11 0 0 1 0 22zm0-17a6 6 0 0 0 0 12 6 6 0 0 0 6-6 6 6 0 0 0-6-6zm14.81 8.64v-5h10v5zm20 0v-5h10v5zm20 0v-5h10v5zm20 0v-5h10v5zm20 0v-5h10v5zm20 0v-5h10v5zm20 0v-5h10v5zm20.16 0h-.16v-5h2.65v5z"/><path class="cls-1" d="M864.5 725.74a11 11 0 0 1 0-22 11 11 0 0 1 0 22zm0-17a6 6 0 0 0-6 6 6 6 0 0 0 6 6 6 6 0 1 0 0-12zm14.81 8.5v-5h10v5zm20 0v-5h10v5zm20 0v-5h10v5zm20 0v-5h10v5zm20 0v-5h10v5zm20 0v-5h10v5zm20 0v-5h10v5zm20.16 0h-.16v-5h2.69v5z"/><path class="cls-1" d="M1030.69 725.6a11 11 0 0 1 0-22 11 11 0 0 1 0 22zm0-17a6 6 0 0 0 0 12 6 6 0 1 0 0-12zm14.82 8.64v-5h10v5zm20 0v-5h10v5zm20 0v-5h10v5zm20 0v-5h10v5zm20 0v-5h10v5zm20 0v-5h10v5zm20 0v-5h10v5zm20.16 0h-.16v-5h2.65v5z"/><path class="cls-1" d="M1196.88 725.6a11 11 0 0 1 0-22 11 11 0 0 1 0 22zm0-17a6 6 0 0 0 0 12 6 6 0 1 0 0-12zm14.82 8.64v-5h10v5zm20 0v-5h10v5zm20 0v-5h10v5zm20 0v-5h10v5zm20 0v-5h10v5zm20 0v-5h10v5zm20 0v-5h10v5zm20.16 0h-.16v-5h2.65v5z"/><path class="cls-1" d="M1363.07 725.6a11 11 0 0 1 0-22 11 11 0 0 1 0 22zm0-17a6 6 0 0 0 0 12 6 6 0 1 0 0-12zm14.82 8.78v-5h10v5zm20 0v-5h10v5zm20 0v-5h10v5zm20 0v-5h10v5zm20 0v-5h10v5zm20 0v-5h10v5zm20 0v-5h10v5zm20.16 0h-.16v-5h2.65v5z"/><path class="cls-1" d="M1529.27 725.74a11 11 0 0 1 0-22 11 11 0 0 1 0 22zm0-17a6 6 0 0 0-6 6 6 6 0 0 0 6 6 6 6 0 1 0 0-12zm11.73 8.5v-5h10v5zm20 0v-5h10v5zm20 0v-5h10v5zm20 0v-5h10v5zm20 0v-5h10v5zm20 0v-5h10v5zm20 0v-5h10v5zm26.31 8.36a11 11 0 0 1 0-22 11 11 0 0 1 0 22zm0-17a6 6 0 0 0 0 12 6 6 0 1 0 0-12zM7.38 752a2.12 2.12 0 0 0-1.74 1 6.73 6.73 0 0 0-.64 3.5l-5-.56a9.4 9.4 0 0 1 2-6.46 6.87 6.87 0 0 1 5.41-2.28q3.9 0 5.59 2.09a8.71 8.71 0 0 1 1.69 5.63 12.83 12.83 0 0 1-.45 3.86 19.76 19.76 0 0 1-1.48 3.62l-6.6 13.05h8.22v4.74H.28v-4.42q2.11-4 4.16-8l4.11-8a7.23 7.23 0 0 0 .83-2.43 18.52 18.52 0 0 0 .16-2.52 6.62 6.62 0 0 0-.07-.94 2.88 2.88 0 0 0-.3-.94 2.4 2.4 0 0 0-.66-.73 1.91 1.91 0 0 0-1.13-.21zm26.27 21.57a7.36 7.36 0 0 1-.56 2.93 6.32 6.32 0 0 1-3.8 3.53 8.32 8.32 0 0 1-2.76.44 8.47 8.47 0 0 1-2.8-.44 6.25 6.25 0 0 1-3.8-3.53 7.19 7.19 0 0 1-.57-2.93V754.2a7.37 7.37 0 0 1 .57-3 6.52 6.52 0 0 1 1.53-2.2 6.67 6.67 0 0 1 2.27-1.36 8.23 8.23 0 0 1 2.8-.47 7.27 7.27 0 0 1 5.14 1.83 6.7 6.7 0 0 1 2 5.17zM28.58 754a1.91 1.91 0 0 0-.59-1.48 2.11 2.11 0 0 0-1.48-.54 2.23 2.23 0 0 0-1.55.54 1.86 1.86 0 0 0-.61 1.48v19.74a1.87 1.87 0 0 0 .61 1.48 2.23 2.23 0 0 0 1.55.54 2.11 2.11 0 0 0 1.48-.54 1.93 1.93 0 0 0 .59-1.48zm24.11 19.57a7.19 7.19 0 0 1-.57 2.93 6.25 6.25 0 0 1-3.8 3.53 8.3 8.3 0 0 1-2.75.44 8.49 8.49 0 0 1-2.81-.44A6.32 6.32 0 0 1 39 776.5a7.36 7.36 0 0 1-.56-2.93V754.2a7.55 7.55 0 0 1 .56-3 6.41 6.41 0 0 1 1.5-2.2 6.63 6.63 0 0 1 2.26-1.36 8.24 8.24 0 0 1 2.81-.47 7.28 7.28 0 0 1 5.14 1.83 6.7 6.7 0 0 1 2 5.17zM47.61 754a1.91 1.91 0 0 0-.59-1.48 2.09 2.09 0 0 0-1.48-.54 2.27 2.27 0 0 0-1.55.54 1.86 1.86 0 0 0-.61 1.48v19.74a1.87 1.87 0 0 0 .61 1.48 2.27 2.27 0 0 0 1.55.54 2.09 2.09 0 0 0 1.48-.54 1.93 1.93 0 0 0 .59-1.48zm15.89 26.19h-5l8-28.06h-4.7v3.53h-4.46v-8.18h14.43v4.28zM170.38 752a2.12 2.12 0 0 0-1.74 1 6.73 6.73 0 0 0-.66 3.52l-5-.56a9.4 9.4 0 0 1 2-6.46 6.87 6.87 0 0 1 5.41-2.28q3.9 0 5.59 2.09a8.71 8.71 0 0 1 1.69 5.63 12.83 12.83 0 0 1-.45 3.86 19.76 19.76 0 0 1-1.48 3.62l-6.62 13.05h8.22v4.74h-14.1v-4.42q2.11-4 4.16-8l4.11-8a7.23 7.23 0 0 0 .83-2.43 18.52 18.52 0 0 0 .16-2.52 6.62 6.62 0 0 0-.07-.94 2.88 2.88 0 0 0-.3-.94 2.4 2.4 0 0 0-.66-.73 1.91 1.91 0 0 0-1.09-.23zm26.27 21.57a7.36 7.36 0 0 1-.56 2.93 6.32 6.32 0 0 1-3.8 3.53 8.32 8.32 0 0 1-2.76.44 8.47 8.47 0 0 1-2.8-.44 6.25 6.25 0 0 1-3.8-3.53 7.19 7.19 0 0 1-.57-2.93V754.2a7.37 7.37 0 0 1 .57-3 6.52 6.52 0 0 1 1.53-2.21 6.67 6.67 0 0 1 2.27-1.36 8.23 8.23 0 0 1 2.8-.47 7.27 7.27 0 0 1 5.14 1.83 6.7 6.7 0 0 1 2 5.17zM191.58 754a1.91 1.91 0 0 0-.59-1.48 2.11 2.11 0 0 0-1.48-.54 2.23 2.23 0 0 0-1.55.54 1.86 1.86 0 0 0-.61 1.48v19.74a1.87 1.87 0 0 0 .61 1.48 2.23 2.23 0 0 0 1.55.54 2.11 2.11 0 0 0 1.48-.54 1.93 1.93 0 0 0 .59-1.48zm24.11 19.57a7.19 7.19 0 0 1-.57 2.93 6.25 6.25 0 0 1-3.8 3.53 8.3 8.3 0 0 1-2.75.44 8.49 8.49 0 0 1-2.81-.44 6.32 6.32 0 0 1-3.8-3.53 7.36 7.36 0 0 1-.56-2.93V754.2a7.55 7.55 0 0 1 .56-3 6.41 6.41 0 0 1 1.54-2.2 6.63 6.63 0 0 1 2.26-1.36 8.24 8.24 0 0 1 2.81-.47 7.28 7.28 0 0 1 5.14 1.83 6.7 6.7 0 0 1 2 5.17zM210.61 754a1.91 1.91 0 0 0-.59-1.48 2.09 2.09 0 0 0-1.48-.54 2.27 2.27 0 0 0-1.55.54 1.86 1.86 0 0 0-.61 1.48v19.74a1.87 1.87 0 0 0 .61 1.48 2.27 2.27 0 0 0 1.55.54 2.09 2.09 0 0 0 1.48-.54 1.93 1.93 0 0 0 .59-1.48zm24.02 3.21a11 11 0 0 1-.52 3.38 4.08 4.08 0 0 1-2 2.4 4.7 4.7 0 0 1 1.4 1.27 5 5 0 0 1 .74 1.55 9.29 9.29 0 0 1 .3 1.85c.05.68.07 1.41.07 2.19v2.82a10 10 0 0 1-.54 3.48 6.52 6.52 0 0 1-1.51 2.42 5.92 5.92 0 0 1-2.26 1.41 9.46 9.46 0 0 1-6.06-.12 5.77 5.77 0 0 1-2.24-1.6 6.89 6.89 0 0 1-1.3-2.44 10.68 10.68 0 0 1-.42-3.06v-2.35c0-.75 0-1.48.07-2.21a10.87 10.87 0 0 1 .33-2 6 6 0 0 1 .77-1.74 4.77 4.77 0 0 1 1.41-1.34 3.13 3.13 0 0 1-1.29-1 5 5 0 0 1-.77-1.37 6 6 0 0 1-.38-1.45 10.45 10.45 0 0 1-.09-1.25v-3.76a6.71 6.71 0 0 1 7.12-7.14 6.92 6.92 0 0 1 5.28 1.95 8 8 0 0 1 1.84 5.66zm-5-2.82a3 3 0 0 0-.49-1.74 1.84 1.84 0 0 0-1.63-.7 2.3 2.3 0 0 0-1.5.54 1.75 1.75 0 0 0-.66 1.43v5.17a1.77 1.77 0 0 0 .64 1.43 2.26 2.26 0 0 0 1.52.54 2.17 2.17 0 0 0 1.53-.54 1.86 1.86 0 0 0 .59-1.43zm0 13.15a3.54 3.54 0 0 0-.45-1.78 1.75 1.75 0 0 0-1.67-.8 1.8 1.8 0 0 0-1.69.8 3.45 3.45 0 0 0-.47 1.78v6.17a1.85 1.85 0 0 0 .64 1.46 2.23 2.23 0 0 0 1.52.56 2.13 2.13 0 0 0 1.53-.56 1.94 1.94 0 0 0 .59-1.46zM339.38 752a2.12 2.12 0 0 0-1.74 1 6.73 6.73 0 0 0-.66 3.52l-5-.56a9.4 9.4 0 0 1 2-6.46 6.87 6.87 0 0 1 5.41-2.28q3.9 0 5.59 2.09a8.71 8.71 0 0 1 1.69 5.63 12.83 12.83 0 0 1-.45 3.86 19.76 19.76 0 0 1-1.48 3.62l-6.62 13.05h8.22v4.74h-14.1v-4.42q2.12-4 4.16-8l4.11-8a7.23 7.23 0 0 0 .83-2.43 18.52 18.52 0 0 0 .16-2.52 6.62 6.62 0 0 0-.07-.94 2.88 2.88 0 0 0-.3-.94 2.4 2.4 0 0 0-.66-.73 1.91 1.91 0 0 0-1.09-.23zm26.27 21.57a7.36 7.36 0 0 1-.56 2.93 6.32 6.32 0 0 1-3.8 3.53 8.32 8.32 0 0 1-2.76.44 8.47 8.47 0 0 1-2.8-.44 6.25 6.25 0 0 1-3.8-3.53 7.19 7.19 0 0 1-.57-2.93V754.2a7.37 7.37 0 0 1 .57-3 6.52 6.52 0 0 1 1.53-2.21 6.67 6.67 0 0 1 2.27-1.36 8.23 8.23 0 0 1 2.8-.47 7.27 7.27 0 0 1 5.14 1.83 6.7 6.7 0 0 1 2 5.17zM360.58 754a1.91 1.91 0 0 0-.59-1.48 2.11 2.11 0 0 0-1.48-.54 2.23 2.23 0 0 0-1.55.54 1.86 1.86 0 0 0-.61 1.48v19.74a1.87 1.87 0 0 0 .61 1.48 2.23 2.23 0 0 0 1.55.54 2.11 2.11 0 0 0 1.48-.54 1.93 1.93 0 0 0 .59-1.48zm24.11 19.57a7.19 7.19 0 0 1-.57 2.93 6.25 6.25 0 0 1-3.8 3.53 8.3 8.3 0 0 1-2.75.44 8.49 8.49 0 0 1-2.81-.44 6.32 6.32 0 0 1-3.8-3.53 7.36 7.36 0 0 1-.56-2.93V754.2a7.55 7.55 0 0 1 .56-3 6.41 6.41 0 0 1 1.54-2.2 6.63 6.63 0 0 1 2.26-1.36 8.24 8.24 0 0 1 2.81-.47 7.28 7.28 0 0 1 5.14 1.83 6.7 6.7 0 0 1 2 5.17zM379.61 754a1.91 1.91 0 0 0-.59-1.48 2.09 2.09 0 0 0-1.48-.54 2.27 2.27 0 0 0-1.55.54 1.86 1.86 0 0 0-.61 1.48v19.74a1.87 1.87 0 0 0 .61 1.48 2.27 2.27 0 0 0 1.55.54 2.09 2.09 0 0 0 1.48-.54 1.93 1.93 0 0 0 .59-1.48zm16.92 12.09a3.6 3.6 0 0 1-2.07.57 5.06 5.06 0 0 1-3.72-1.39q-1.39-1.38-1.4-4.91v-5.69a9.42 9.42 0 0 1 .45-3 6.58 6.58 0 0 1 1.34-2.37 6 6 0 0 1 2.27-1.58 8.59 8.59 0 0 1 3.25-.56 7.06 7.06 0 0 1 5.28 1.83 6.78 6.78 0 0 1 1.79 4.94v4.18a18.83 18.83 0 0 1-.94 6.34l-6 15.7h-5.37l5.34-13.91zm-2.11-5.5a1.81 1.81 0 0 0 .6 1.46 2.24 2.24 0 0 0 1.53.52 1.78 1.78 0 0 0 1.58-.73 2.85 2.85 0 0 0 .52-1.67v-6.3a1.78 1.78 0 0 0-.59-1.43 2.23 2.23 0 0 0-1.51-.49 2.38 2.38 0 0 0-1.51.49 1.71 1.71 0 0 0-.62 1.43zM507.38 752a2.12 2.12 0 0 0-1.74 1 6.73 6.73 0 0 0-.66 3.52l-5-.56a9.4 9.4 0 0 1 2-6.46 6.87 6.87 0 0 1 5.41-2.28q3.9 0 5.59 2.09a8.71 8.71 0 0 1 1.69 5.63 12.83 12.83 0 0 1-.45 3.86 19.76 19.76 0 0 1-1.48 3.62l-6.62 13.05h8.22v4.74h-14.1v-4.42q2.12-4 4.16-8l4.11-8a7.23 7.23 0 0 0 .83-2.43 18.52 18.52 0 0 0 .16-2.52 6.62 6.62 0 0 0-.07-.94 2.88 2.88 0 0 0-.3-.94 2.4 2.4 0 0 0-.66-.73 1.91 1.91 0 0 0-1.09-.23zm26.27 21.57a7.36 7.36 0 0 1-.56 2.93 6.32 6.32 0 0 1-3.8 3.53 8.32 8.32 0 0 1-2.76.44 8.47 8.47 0 0 1-2.8-.44 6.25 6.25 0 0 1-3.8-3.53 7.19 7.19 0 0 1-.57-2.93V754.2a7.37 7.37 0 0 1 .57-3 6.52 6.52 0 0 1 1.53-2.21 6.67 6.67 0 0 1 2.27-1.36 8.23 8.23 0 0 1 2.8-.47 7.27 7.27 0 0 1 5.14 1.83 6.7 6.7 0 0 1 2 5.17zM528.58 754a1.91 1.91 0 0 0-.59-1.48 2.11 2.11 0 0 0-1.48-.54 2.23 2.23 0 0 0-1.55.54 1.86 1.86 0 0 0-.61 1.48v19.74a1.87 1.87 0 0 0 .61 1.48 2.23 2.23 0 0 0 1.55.54 2.11 2.11 0 0 0 1.48-.54 1.93 1.93 0 0 0 .59-1.48zm16.59 26.19v-27l-4.47 3.57v-5.45l4.75-3.81h4.75v32.71zm26.55-6.62a7.36 7.36 0 0 1-.56 2.93 6.32 6.32 0 0 1-3.8 3.53 8.32 8.32 0 0 1-2.76.44 8.47 8.47 0 0 1-2.8-.44 6.25 6.25 0 0 1-3.8-3.53 7.19 7.19 0 0 1-.57-2.93V754.2a7.37 7.37 0 0 1 .57-3 6.52 6.52 0 0 1 1.53-2.21 6.67 6.67 0 0 1 2.27-1.36 8.23 8.23 0 0 1 2.8-.47 7.27 7.27 0 0 1 5.14 1.83 6.7 6.7 0 0 1 2 5.17zM566.65 754a1.91 1.91 0 0 0-.59-1.48 2.11 2.11 0 0 0-1.48-.54 2.23 2.23 0 0 0-1.55.54 1.86 1.86 0 0 0-.61 1.48v19.74a1.87 1.87 0 0 0 .61 1.48 2.23 2.23 0 0 0 1.55.54 2.11 2.11 0 0 0 1.48-.54 1.93 1.93 0 0 0 .59-1.48zm101.73-2a2.12 2.12 0 0 0-1.74 1 6.73 6.73 0 0 0-.66 3.52l-5-.56a9.4 9.4 0 0 1 2-6.46 6.87 6.87 0 0 1 5.41-2.28q3.9 0 5.59 2.09a8.71 8.71 0 0 1 1.69 5.63 12.83 12.83 0 0 1-.45 3.86 19.76 19.76 0 0 1-1.48 3.62l-6.62 13.05h8.22v4.74h-14.1v-4.42q2.12-4 4.16-8l4.11-8a7.23 7.23 0 0 0 .83-2.43 18.52 18.52 0 0 0 .16-2.52 6.62 6.62 0 0 0-.07-.94 2.88 2.88 0 0 0-.3-.94 2.4 2.4 0 0 0-.66-.73 1.91 1.91 0 0 0-1.09-.23zm26.27 21.57a7.36 7.36 0 0 1-.56 2.93 6.32 6.32 0 0 1-3.8 3.53 8.32 8.32 0 0 1-2.76.44 8.47 8.47 0 0 1-2.8-.44 6.25 6.25 0 0 1-3.8-3.53 7.19 7.19 0 0 1-.57-2.93V754.2a7.37 7.37 0 0 1 .57-3 6.52 6.52 0 0 1 1.53-2.21 6.67 6.67 0 0 1 2.27-1.36 8.23 8.23 0 0 1 2.8-.47 7.27 7.27 0 0 1 5.14 1.83 6.7 6.7 0 0 1 2 5.17zM689.58 754a1.91 1.91 0 0 0-.59-1.48 2.11 2.11 0 0 0-1.48-.54 2.23 2.23 0 0 0-1.55.54 1.86 1.86 0 0 0-.61 1.48v19.74a1.87 1.87 0 0 0 .61 1.48 2.23 2.23 0 0 0 1.55.54 2.11 2.11 0 0 0 1.48-.54 1.93 1.93 0 0 0 .59-1.48zm16.59 26.19v-27l-4.47 3.57v-5.45l4.75-3.81h4.75v32.71zm19.03 0v-27l-4.46 3.57v-5.45l4.74-3.81h4.75v32.71zM836.38 752a2.12 2.12 0 0 0-1.74 1 6.73 6.73 0 0 0-.66 3.52l-5-.56a9.4 9.4 0 0 1 2-6.46 6.87 6.87 0 0 1 5.41-2.28q3.9 0 5.59 2.09a8.71 8.71 0 0 1 1.69 5.63 12.83 12.83 0 0 1-.45 3.86 19.76 19.76 0 0 1-1.48 3.62l-6.62 13.05h8.22v4.74h-14.1v-4.42q2.12-4 4.16-8l4.11-8a7.23 7.23 0 0 0 .83-2.43 18.52 18.52 0 0 0 .16-2.52 6.62 6.62 0 0 0-.07-.94 2.88 2.88 0 0 0-.3-.94 2.4 2.4 0 0 0-.66-.73 1.91 1.91 0 0 0-1.09-.23zm26.27 21.57a7.36 7.36 0 0 1-.56 2.93 6.32 6.32 0 0 1-3.8 3.53 8.32 8.32 0 0 1-2.76.44 8.47 8.47 0 0 1-2.8-.44 6.25 6.25 0 0 1-3.8-3.53 7.19 7.19 0 0 1-.57-2.93V754.2a7.37 7.37 0 0 1 .57-3 6.52 6.52 0 0 1 1.53-2.21 6.67 6.67 0 0 1 2.27-1.36 8.23 8.23 0 0 1 2.8-.47 7.27 7.27 0 0 1 5.14 1.83 6.7 6.7 0 0 1 2 5.17zM857.58 754a1.91 1.91 0 0 0-.59-1.48 2.11 2.11 0 0 0-1.48-.54 2.23 2.23 0 0 0-1.55.54 1.86 1.86 0 0 0-.61 1.48v19.74a1.87 1.87 0 0 0 .61 1.48 2.23 2.23 0 0 0 1.55.54 2.11 2.11 0 0 0 1.48-.54 1.93 1.93 0 0 0 .59-1.48zm16.59 26.19v-27l-4.47 3.57v-5.45l4.75-3.81h4.75v32.71zM893.48 752a2.12 2.12 0 0 0-1.74 1 6.86 6.86 0 0 0-.65 3.52l-5-.56a9.4 9.4 0 0 1 2-6.46 6.85 6.85 0 0 1 5.4-2.28c2.6 0 4.47.7 5.59 2.09a8.71 8.71 0 0 1 1.7 5.63 12.83 12.83 0 0 1-.45 3.86 20.49 20.49 0 0 1-1.48 3.62l-6.63 13.05h8.23v4.74h-14.1v-4.42q2.11-4 4.16-8l4.11-8a7.21 7.21 0 0 0 .82-2.43 18.48 18.48 0 0 0 .17-2.52 8.52 8.52 0 0 0-.07-.94 2.67 2.67 0 0 0-.31-.94 2.4 2.4 0 0 0-.66-.73 1.91 1.91 0 0 0-1.09-.23zm106.9 0a2.12 2.12 0 0 0-1.74 1 6.73 6.73 0 0 0-.66 3.52l-5-.56a9.4 9.4 0 0 1 2-6.46 6.87 6.87 0 0 1 5.41-2.28q3.9 0 5.59 2.09a8.71 8.71 0 0 1 1.69 5.63 12.83 12.83 0 0 1-.45 3.86 19.76 19.76 0 0 1-1.48 3.62l-6.62 13.05h8.22v4.74h-14.1v-4.42q2.12-4 4.16-8l4.11-8a7.23 7.23 0 0 0 .83-2.43 18.52 18.52 0 0 0 .16-2.52 6.62 6.62 0 0 0-.07-.94 2.88 2.88 0 0 0-.3-.94 2.4 2.4 0 0 0-.66-.73 1.94 1.94 0 0 0-1.09-.23zm26.27 21.57a7.36 7.36 0 0 1-.56 2.93 6.32 6.32 0 0 1-3.8 3.53 8.32 8.32 0 0 1-2.76.44 8.47 8.47 0 0 1-2.8-.44 6.25 6.25 0 0 1-3.8-3.53 7.19 7.19 0 0 1-.57-2.93V754.2a7.37 7.37 0 0 1 .57-3 6.52 6.52 0 0 1 1.53-2.21 6.67 6.67 0 0 1 2.27-1.36 8.23 8.23 0 0 1 2.8-.47 7.27 7.27 0 0 1 5.14 1.83 6.7 6.7 0 0 1 2 5.17zm-5.07-19.6a1.91 1.91 0 0 0-.59-1.48 2.11 2.11 0 0 0-1.48-.54 2.23 2.23 0 0 0-1.55.54 1.86 1.86 0 0 0-.61 1.48v19.74a1.87 1.87 0 0 0 .61 1.48 2.23 2.23 0 0 0 1.55.54 2.11 2.11 0 0 0 1.48-.54 1.93 1.93 0 0 0 .59-1.48zm16.59 26.22v-27l-4.47 3.57v-5.45l4.75-3.81h4.75v32.71zm23.83-16.82a3.88 3.88 0 0 1 2.16 2.18 9.58 9.58 0 0 1 .51 3.22v3.76c0 2.6-.68 4.58-2.05 5.92a7.43 7.43 0 0 1-5.47 2c-2.67 0-4.58-.72-5.74-2.18s-1.66-3.52-1.5-6.18l5-.61a4.94 4.94 0 0 0 .45 3.29 2.18 2.18 0 0 0 1.85.94 2.48 2.48 0 0 0 1.58-.59 2.71 2.71 0 0 0 .72-2.19v-4.41a3.11 3.11 0 0 0-.75-2.35 3 3 0 0 0-2.11-.71h-1.41v-4.32h1.64a2.45 2.45 0 0 0 2.78-2.87v-3.62a3.93 3.93 0 0 0-.43-1.78 1.65 1.65 0 0 0-1.64-.85 2.16 2.16 0 0 0-1.86 1 5.82 5.82 0 0 0-.68 3.22l-5-.66a9 9 0 0 1 2.16-6.08 7.17 7.17 0 0 1 5.59-2.28 7.66 7.66 0 0 1 3.25.61 5.78 5.78 0 0 1 2.11 1.62 6.38 6.38 0 0 1 1.15 2.3 9.76 9.76 0 0 1 .35 2.61v2.59c0 .62 0 1.24-.07 1.85a7.19 7.19 0 0 1-.32 1.72 4.84 4.84 0 0 1-.8 1.48 4.38 4.38 0 0 1-1.48 1.15zM1167.38 752a2.12 2.12 0 0 0-1.74 1 6.73 6.73 0 0 0-.66 3.52l-5-.56a9.4 9.4 0 0 1 2-6.46 6.87 6.87 0 0 1 5.41-2.28q3.9 0 5.59 2.09a8.71 8.71 0 0 1 1.69 5.63 12.83 12.83 0 0 1-.45 3.86 19.76 19.76 0 0 1-1.48 3.62l-6.62 13.05h8.22v4.74h-14.1v-4.42q2.12-4 4.16-8l4.11-8a7.23 7.23 0 0 0 .83-2.43 18.52 18.52 0 0 0 .16-2.52 6.62 6.62 0 0 0-.07-.94 2.88 2.88 0 0 0-.3-.94 2.4 2.4 0 0 0-.66-.73 1.94 1.94 0 0 0-1.09-.23zm26.27 21.57a7.36 7.36 0 0 1-.56 2.93 6.32 6.32 0 0 1-3.8 3.53 8.32 8.32 0 0 1-2.76.44 8.47 8.47 0 0 1-2.8-.44 6.25 6.25 0 0 1-3.8-3.53 7.19 7.19 0 0 1-.57-2.93V754.2a7.37 7.37 0 0 1 .57-3 6.52 6.52 0 0 1 1.53-2.21 6.67 6.67 0 0 1 2.27-1.36 8.23 8.23 0 0 1 2.8-.47 7.27 7.27 0 0 1 5.14 1.83 6.7 6.7 0 0 1 2 5.17zm-5.07-19.6a1.91 1.91 0 0 0-.59-1.48 2.11 2.11 0 0 0-1.48-.54 2.23 2.23 0 0 0-1.55.54 1.86 1.86 0 0 0-.61 1.48v19.74a1.87 1.87 0 0 0 .61 1.48 2.23 2.23 0 0 0 1.55.54 2.11 2.11 0 0 0 1.48-.54 1.93 1.93 0 0 0 .59-1.48zm16.59 26.22v-27l-4.47 3.57v-5.45l4.75-3.81h4.75v32.71zm25.38-4.89v4.89h-4.94v-4.89H1216V771l7-23.55h4.94l-6.77 23.08h4.46v-7.43h4.94v7.43h2.07v4.74zm104.83-23.3a2.12 2.12 0 0 0-1.74 1 6.73 6.73 0 0 0-.66 3.52l-5-.56a9.4 9.4 0 0 1 2-6.46 6.87 6.87 0 0 1 5.41-2.28q3.9 0 5.59 2.09a8.71 8.71 0 0 1 1.69 5.63 12.83 12.83 0 0 1-.45 3.86 19.76 19.76 0 0 1-1.48 3.62l-6.62 13.05h8.22v4.74h-14.1v-4.42q2.12-4 4.16-8l4.11-8a7.23 7.23 0 0 0 .83-2.43 18.52 18.52 0 0 0 .16-2.52 6.62 6.62 0 0 0-.07-.94 2.88 2.88 0 0 0-.3-.94 2.4 2.4 0 0 0-.66-.73 1.94 1.94 0 0 0-1.09-.23zm26.27 21.57a7.36 7.36 0 0 1-.56 2.93 6.32 6.32 0 0 1-3.8 3.53 8.32 8.32 0 0 1-2.76.44 8.47 8.47 0 0 1-2.8-.44 6.25 6.25 0 0 1-3.8-3.53 7.19 7.19 0 0 1-.57-2.93V754.2a7.37 7.37 0 0 1 .57-3 6.52 6.52 0 0 1 1.53-2.21 6.67 6.67 0 0 1 2.27-1.36 8.23 8.23 0 0 1 2.8-.47 7.27 7.27 0 0 1 5.14 1.83 6.7 6.7 0 0 1 2 5.17zm-5.07-19.6a1.91 1.91 0 0 0-.59-1.48 2.11 2.11 0 0 0-1.48-.54 2.23 2.23 0 0 0-1.55.54 1.86 1.86 0 0 0-.61 1.48v19.74a1.87 1.87 0 0 0 .61 1.48 2.23 2.23 0 0 0 1.55.54 2.11 2.11 0 0 0 1.48-.54 1.93 1.93 0 0 0 .59-1.48zm16.59 26.22v-27l-4.47 3.57v-5.45l4.75-3.81h4.75v32.71zm19.13.28q-3.72 0-5.43-2.11a9.05 9.05 0 0 1-1.72-5.88l4.89-.79v.65a4.61 4.61 0 0 0 .56 2.61 2.06 2.06 0 0 0 1.79.78 2.15 2.15 0 0 0 1.48-.57 3.08 3.08 0 0 0 .73-2.16v-7.75a1.79 1.79 0 0 0-2-2 2.89 2.89 0 0 0-1.44.39 2.65 2.65 0 0 0-1.05 1.34h-4.23v-17.5h13.63v4.65h-9V760h.07a.17.17 0 0 0 .12 0 3.62 3.62 0 0 1 1.58-1 6.21 6.21 0 0 1 1.85-.3c2 0 3.44.55 4.3 1.67a6.65 6.65 0 0 1 1.29 4.2v6.77q0 4.65-1.8 6.84c-1.26 1.57-3.12 2.29-5.62 2.29zM1502.38 752a2.12 2.12 0 0 0-1.74 1 6.73 6.73 0 0 0-.66 3.52l-5-.56a9.4 9.4 0 0 1 2-6.46 6.87 6.87 0 0 1 5.41-2.28q3.9 0 5.59 2.09a8.71 8.71 0 0 1 1.69 5.63 12.83 12.83 0 0 1-.45 3.86 19.76 19.76 0 0 1-1.48 3.62l-6.62 13.05h8.22v4.74h-14.1v-4.42q2.12-4 4.16-8l4.11-8a7.23 7.23 0 0 0 .83-2.43 18.52 18.52 0 0 0 .16-2.52 6.62 6.62 0 0 0-.07-.94 2.88 2.88 0 0 0-.3-.94 2.4 2.4 0 0 0-.66-.73 1.94 1.94 0 0 0-1.09-.23zm26.27 21.57a7.36 7.36 0 0 1-.56 2.93 6.32 6.32 0 0 1-3.8 3.53 8.32 8.32 0 0 1-2.76.44 8.47 8.47 0 0 1-2.8-.44 6.25 6.25 0 0 1-3.8-3.53 7.19 7.19 0 0 1-.57-2.93V754.2a7.37 7.37 0 0 1 .57-3 6.52 6.52 0 0 1 1.53-2.21 6.67 6.67 0 0 1 2.27-1.36 8.23 8.23 0 0 1 2.8-.47 7.27 7.27 0 0 1 5.14 1.83 6.7 6.7 0 0 1 2 5.17zm-5.07-19.6a1.91 1.91 0 0 0-.59-1.48 2.11 2.11 0 0 0-1.48-.54 2.23 2.23 0 0 0-1.55.54 1.86 1.86 0 0 0-.61 1.48v19.74a1.87 1.87 0 0 0 .61 1.48 2.23 2.23 0 0 0 1.55.54 2.11 2.11 0 0 0 1.48-.54 1.93 1.93 0 0 0 .59-1.48zm16.59 26.22v-27l-4.47 3.57v-5.45l4.75-3.81h4.75v32.71zm19.45-18.61a3.64 3.64 0 0 1 2.07-.56 4.87 4.87 0 0 1 3.73 1.5 6.83 6.83 0 0 1 1.4 4.75V773a9.37 9.37 0 0 1-.45 3 6.73 6.73 0 0 1-1.35 2.38 6.07 6.07 0 0 1-2.26 1.57 8.3 8.3 0 0 1-3.21.56 7.14 7.14 0 0 1-5.16-1.83 6.53 6.53 0 0 1-1.91-4.93v-4.19a25.56 25.56 0 0 1 .21-3.45 13.45 13.45 0 0 1 .73-2.89l6-15.7h5.33l-5.34 13.91zm2.12 5.5a1.7 1.7 0 0 0-.61-1.43 2.33 2.33 0 0 0-1.51-.5 1.92 1.92 0 0 0-1.62.71 2.63 2.63 0 0 0-.54 1.64v6.3a1.73 1.73 0 0 0 .61 1.43 2.33 2.33 0 0 0 1.51.5 2.4 2.4 0 0 0 1.55-.5 1.7 1.7 0 0 0 .61-1.43zm96.64-15.08a2.12 2.12 0 0 0-1.74 1 6.73 6.73 0 0 0-.66 3.52l-5-.56a9.4 9.4 0 0 1 2-6.46 6.87 6.87 0 0 1 5.41-2.28q3.9 0 5.59 2.09a8.71 8.71 0 0 1 1.69 5.63 12.83 12.83 0 0 1-.45 3.86 19.76 19.76 0 0 1-1.48 3.62l-6.62 13.05h8.22v4.74h-14.1v-4.42q2.12-4 4.16-8l4.11-8a7.23 7.23 0 0 0 .83-2.43 18.52 18.52 0 0 0 .16-2.52 6.62 6.62 0 0 0-.07-.94 2.88 2.88 0 0 0-.3-.94 2.4 2.4 0 0 0-.66-.73 1.94 1.94 0 0 0-1.09-.23zm26.27 21.57a7.36 7.36 0 0 1-.56 2.93 6.32 6.32 0 0 1-3.8 3.53 8.32 8.32 0 0 1-2.76.44 8.47 8.47 0 0 1-2.8-.44 6.25 6.25 0 0 1-3.8-3.53 7.19 7.19 0 0 1-.57-2.93V754.2a7.37 7.37 0 0 1 .57-3 6.52 6.52 0 0 1 1.53-2.21 6.67 6.67 0 0 1 2.27-1.36 8.23 8.23 0 0 1 2.8-.47 7.27 7.27 0 0 1 5.14 1.83 6.7 6.7 0 0 1 2 5.17zm-5.07-19.6a1.91 1.91 0 0 0-.59-1.48 2.11 2.11 0 0 0-1.48-.54 2.23 2.23 0 0 0-1.55.54 1.86 1.86 0 0 0-.61 1.48v19.74a1.87 1.87 0 0 0 .61 1.48 2.23 2.23 0 0 0 1.55.54 2.11 2.11 0 0 0 1.48-.54 1.93 1.93 0 0 0 .59-1.48zm16.59 26.22v-27l-4.47 3.57v-5.45l4.75-3.81h4.75v32.71zm18.33 0h-5l8-28.06h-4.7v3.53h-4.46v-8.18h14.43v4.28zM25.93 578a4.09 4.09 0 0 1-1.94.41 9.51 9.51 0 0 1-1.78-.18 3.72 3.72 0 0 1-1.76-.88 5.1 5.1 0 0 1-1.33-2.13 11.81 11.81 0 0 1-.53-3.93v-5a17 17 0 0 1 .37-3.57 7.59 7.59 0 0 1 1.35-3.06 7 7 0 0 1 2.69-2.17 10.19 10.19 0 0 1 4.34-.8 9.87 9.87 0 0 1 3.64.62 7.25 7.25 0 0 1 2.6 1.72 6.9 6.9 0 0 1 1.53 2.55 9.76 9.76 0 0 1 .5 3.17V568c0 1.28-.05 2.53-.16 3.75a13.76 13.76 0 0 1-.83 3.64L28 593.19h-7.62l5.81-15zm-.26-6.39a1.28 1.28 0 0 0 .48 1.09 1.71 1.71 0 0 0 1.05.36 1.54 1.54 0 0 0 1-.36 1.37 1.37 0 0 0 .43-1.09v-6.78a1.3 1.3 0 0 0-.43-1 1.54 1.54 0 0 0-1-.36 1.71 1.71 0 0 0-1.05.36 1.22 1.22 0 0 0-.48 1zM41 593.19V587l8.89-16.45a7.82 7.82 0 0 0 .86-2.36 15.27 15.27 0 0 0 .18-2.42 3.86 3.86 0 0 0-.34-1.5 1.22 1.22 0 0 0-1.22-.78 1.78 1.78 0 0 0-.68.15 1.55 1.55 0 0 0-.65.63 4.73 4.73 0 0 0-.49 1.3 8.88 8.88 0 0 0-.21 2.13l-6.86-.83a13 13 0 0 1 .7-4.51 9 9 0 0 1 1.92-3.17 7.62 7.62 0 0 1 2.9-1.9 9.7 9.7 0 0 1 3.43-.6c3.08 0 5.31.81 6.68 2.45a9.87 9.87 0 0 1 2 6.56 15 15 0 0 1-.52 4.22 22.78 22.78 0 0 1-1.71 4.08l-6.55 12.45h8.32v6.76z"/><path class="cls-3" d="M24.77 667.36H18a3.25 3.25 0 0 0-3.18 3.3v12.14a3.25 3.25 0 0 0 3.18 3.3h.19v13.45a2.6 2.6 0 0 0 2.55 2.64h1.15a2.59 2.59 0 0 0 2.54-2.64V686.1h.2a3.25 3.25 0 0 0 3.18-3.3v-12.14a3.07 3.07 0 0 0-3.06-3.3m-3.35-9.17a3.76 3.76 0 1 1-3.63 3.81 3.7 3.7 0 0 1 3.63-3.76m32.68 42.95h-4.56L60 663.69h-8.26v5H47.6v-9.24h17.22v3.9z"/><path class="cls-1" d="M176.93 569.19v-27.92l-4.74 3.73v-7.75l5.41-4.25h6.24v36.19zm15.07 0V563l8.89-16.45a7.82 7.82 0 0 0 .86-2.36 15.27 15.27 0 0 0 .18-2.42 3.86 3.86 0 0 0-.34-1.5 1.22 1.22 0 0 0-1.22-.78 1.78 1.78 0 0 0-.68.15 1.55 1.55 0 0 0-.65.63 4.73 4.73 0 0 0-.49 1.3 8.88 8.88 0 0 0-.21 2.13l-6.86-.83a13 13 0 0 1 .7-4.51 9 9 0 0 1 1.92-3.17 7.62 7.62 0 0 1 2.84-1.86 9.7 9.7 0 0 1 3.43-.6c3.08 0 5.31.81 6.68 2.45a9.87 9.87 0 0 1 2.05 6.56 15 15 0 0 1-.52 4.22 22.78 22.78 0 0 1-1.71 4.06l-6.55 12.45h8.32v6.76zm38.12-5.09v5.09h-6.81v-5.09h-10.56v-5.78L220.5 533h6.87L220 557.44h3.28V551h6.81v6.45h2v6.66zm110.81-19.91v-27.92l-4.74 3.73v-7.75l5.41-4.25h6.24v36.19zm30.83-5.09v5.09H365v-5.09h-10.61v-5.78l7.75-25.32H369l-7.34 24.44H365V526h6.81v6.45h2v6.66zm14.72 5.09h-7L388 514.6h-3.28v3.49h-6.34V508h17v6zm116.17-47V491l8.89-16.45a7.82 7.82 0 0 0 .86-2.36 15.27 15.27 0 0 0 .18-2.42 3.86 3.86 0 0 0-.34-1.5 1.22 1.22 0 0 0-1.22-.78 1.78 1.78 0 0 0-.68.15 1.55 1.55 0 0 0-.65.63 4.73 4.73 0 0 0-.49 1.3 8.88 8.88 0 0 0-.21 2.13l-6.86-.83a13 13 0 0 1 .7-4.51 9 9 0 0 1 1.92-3.17 7.62 7.62 0 0 1 2.84-1.86 9.7 9.7 0 0 1 3.43-.6c3.08 0 5.31.81 6.68 2.45a9.87 9.87 0 0 1 2 6.56 15 15 0 0 1-.52 4.22 22.78 22.78 0 0 1-1.71 4.06L511 490.43h8.32v6.76zm39.35-8.01a9 9 0 0 1-.63 3.46 7.38 7.38 0 0 1-1.76 2.63 7.8 7.8 0 0 1-2.68 1.66 9.46 9.46 0 0 1-3.3.57 9.75 9.75 0 0 1-3.38-.57 7.65 7.65 0 0 1-2.71-1.66 7.53 7.53 0 0 1-1.77-2.63 9.2 9.2 0 0 1-.62-3.46v-20.12a9 9 0 0 1 .65-3.48 7.75 7.75 0 0 1 1.79-2.66 8 8 0 0 1 2.68-1.66 9.56 9.56 0 0 1 3.36-.57 8.34 8.34 0 0 1 6 2.23 8.13 8.13 0 0 1 2.32 6.14zm-7-20.38a1.37 1.37 0 0 0-.44-1.07 1.49 1.49 0 0 0-1-.39 1.68 1.68 0 0 0-1.07.39 1.29 1.29 0 0 0-.49 1.07v20.64a1.23 1.23 0 0 0 .49 1 1.68 1.68 0 0 0 1.07.39 1.49 1.49 0 0 0 1-.39 1.31 1.31 0 0 0 .44-1zm12.37 28.39V491l8.89-16.45a7.82 7.82 0 0 0 .86-2.36 15.27 15.27 0 0 0 .18-2.42 3.86 3.86 0 0 0-.34-1.5 1.22 1.22 0 0 0-1.22-.78 1.78 1.78 0 0 0-.68.15 1.55 1.55 0 0 0-.65.63 4.73 4.73 0 0 0-.49 1.3 8.88 8.88 0 0 0-.21 2.13l-6.86-.83a13 13 0 0 1 .7-4.51 9 9 0 0 1 1.92-3.17 7.62 7.62 0 0 1 2.84-1.86 9.7 9.7 0 0 1 3.43-.6c3.08 0 5.31.81 6.68 2.45a9.87 9.87 0 0 1 2.05 6.56 15 15 0 0 1-.52 4.22 22.78 22.78 0 0 1-1.71 4.06l-6.55 12.45H564v6.76zm117.28-5V486l8.89-16.45a7.82 7.82 0 0 0 .86-2.36 15.27 15.27 0 0 0 .18-2.42 3.86 3.86 0 0 0-.34-1.5 1.22 1.22 0 0 0-1.22-.78 1.78 1.78 0 0 0-.68.15 1.55 1.55 0 0 0-.65.63 4.73 4.73 0 0 0-.49 1.3 8.88 8.88 0 0 0-.21 2.13l-6.86-.83a13 13 0 0 1 .7-4.51 9 9 0 0 1 1.92-3.17 7.62 7.62 0 0 1 2.84-1.86 9.7 9.7 0 0 1 3.43-.6c3.08 0 5.31.81 6.68 2.45a9.87 9.87 0 0 1 2 6.56 15 15 0 0 1-.52 4.22 22.78 22.78 0 0 1-1.71 4.06L673 485.43h8.32v6.76zm39.35-8.01a9 9 0 0 1-.63 3.46 7.38 7.38 0 0 1-1.76 2.63 7.8 7.8 0 0 1-2.68 1.66 9.46 9.46 0 0 1-3.3.57 9.75 9.75 0 0 1-3.38-.57 7.65 7.65 0 0 1-2.71-1.66 7.53 7.53 0 0 1-1.77-2.63 9.2 9.2 0 0 1-.62-3.46v-20.12a9 9 0 0 1 .65-3.48 7.75 7.75 0 0 1 1.79-2.66 8 8 0 0 1 2.68-1.66 9.56 9.56 0 0 1 3.36-.57 8.34 8.34 0 0 1 6 2.23 8.13 8.13 0 0 1 2.32 6.14zm-7-20.38a1.37 1.37 0 0 0-.44-1.07 1.49 1.49 0 0 0-1-.39 1.68 1.68 0 0 0-1.07.39 1.29 1.29 0 0 0-.49 1.07v20.64a1.23 1.23 0 0 0 .49 1 1.68 1.68 0 0 0 1.07.39 1.49 1.49 0 0 0 1-.39 1.31 1.31 0 0 0 .44-1zm28.12 23.3v5.09h-6.81v-5.09h-10.56v-5.78L715.5 456h6.87L715 480.44h3.28V474h6.81v6.45h2v6.66zm108.53-48.91V432l8.89-16.45a7.82 7.82 0 0 0 .86-2.36 15.27 15.27 0 0 0 .18-2.42 3.86 3.86 0 0 0-.34-1.5 1.22 1.22 0 0 0-1.22-.78 1.78 1.78 0 0 0-.68.15 1.55 1.55 0 0 0-.65.63 4.73 4.73 0 0 0-.49 1.3 8.88 8.88 0 0 0-.21 2.13l-6.86-.83a13 13 0 0 1 .7-4.51 9 9 0 0 1 1.92-3.17 7.62 7.62 0 0 1 2.84-1.86 9.7 9.7 0 0 1 3.43-.6c3.08 0 5.31.81 6.68 2.45a9.87 9.87 0 0 1 2 6.56 15 15 0 0 1-.52 4.22 22.78 22.78 0 0 1-1.71 4.06L842 431.43h8.32v6.76zm22.35 0V432l8.89-16.45a7.82 7.82 0 0 0 .86-2.36 15.27 15.27 0 0 0 .18-2.42 3.86 3.86 0 0 0-.34-1.5 1.22 1.22 0 0 0-1.22-.78 1.78 1.78 0 0 0-.68.15 1.55 1.55 0 0 0-.65.63 4.73 4.73 0 0 0-.49 1.3 8.88 8.88 0 0 0-.21 2.13l-6.86-.83a13 13 0 0 1 .7-4.51 9 9 0 0 1 1.92-3.17 7.62 7.62 0 0 1 2.84-1.86 9.7 9.7 0 0 1 3.43-.6c3.08 0 5.31.81 6.68 2.45a9.87 9.87 0 0 1 2.05 6.56 15 15 0 0 1-.52 4.22 22.78 22.78 0 0 1-1.71 4.06l-6.55 12.45h8.32v6.76zm36.61-18.82a3.63 3.63 0 0 1 1.51 1.25 5.77 5.77 0 0 1 .78 1.71 9.1 9.1 0 0 1 .31 2c0 .69.06 1.39.06 2.08v3q0 4.47-2.19 6.81a8.06 8.06 0 0 1-6.19 2.34 9.56 9.56 0 0 1-3.9-.72 7.39 7.39 0 0 1-2.65-2 7.76 7.76 0 0 1-1.51-2.89 12.55 12.55 0 0 1-.46-3.45v-4.01a12.3 12.3 0 0 1 .31-2.34 7.55 7.55 0 0 1 .83-2.13 4.36 4.36 0 0 1 1.66-1.61l-.05-.31a4.08 4.08 0 0 1-1.53-1.33 6.52 6.52 0 0 1-.83-1.77 8.29 8.29 0 0 1-.34-2c0-.69-.05-1.37-.05-2v-1.56a10 10 0 0 1 .52-3.22 8 8 0 0 1 1.56-2.78 7.39 7.39 0 0 1 2.6-1.95 8.59 8.59 0 0 1 3.69-.73 9.72 9.72 0 0 1 3.79.67 7 7 0 0 1 2.63 1.85 7.59 7.59 0 0 1 1.51 2.73 11 11 0 0 1 .49 3.33V412c0 .7 0 1.4-.05 2.11a8.7 8.7 0 0 1-.34 2 5.77 5.77 0 0 1-.83 1.77 3.75 3.75 0 0 1-1.53 1.25zm-4.31-9.62a1.35 1.35 0 0 0-.42-1 1.4 1.4 0 0 0-1-.42 1.66 1.66 0 0 0-1 .42 1.23 1.23 0 0 0-.52 1v5.51a1.27 1.27 0 0 0 .5 1 1.57 1.57 0 0 0 1.06.41 1.39 1.39 0 0 0 1-.41 1.35 1.35 0 0 0 .42-1zm0 13.47a1.34 1.34 0 0 0-.42-1 1.4 1.4 0 0 0-1-.42 1.59 1.59 0 0 0-1.09.42 1.28 1.28 0 0 0-.47 1v7.28a1.19 1.19 0 0 0 .5 1 1.66 1.66 0 0 0 1.06.39 1.46 1.46 0 0 0 1-.39 1.26 1.26 0 0 0 .42-1zm106.35-65.03V352l8.89-16.45a7.82 7.82 0 0 0 .86-2.36 15.27 15.27 0 0 0 .18-2.42 3.86 3.86 0 0 0-.34-1.5 1.22 1.22 0 0 0-1.22-.78 1.78 1.78 0 0 0-.68.15 1.55 1.55 0 0 0-.65.63 4.73 4.73 0 0 0-.49 1.3 8.88 8.88 0 0 0-.21 2.13l-6.86-.83a13 13 0 0 1 .7-4.51 9 9 0 0 1 1.92-3.17 7.62 7.62 0 0 1 2.84-1.86 9.7 9.7 0 0 1 3.43-.6c3.08 0 5.31.81 6.68 2.45a9.87 9.87 0 0 1 2 6.56 15 15 0 0 1-.52 4.22 22.78 22.78 0 0 1-1.71 4.06l-6.47 12.41h8.32v6.76zm36.6-18.82a3.63 3.63 0 0 1 1.51 1.25 5.77 5.77 0 0 1 .78 1.71 9.1 9.1 0 0 1 .31 2c0 .69.06 1.39.06 2.08v3q0 4.47-2.19 6.81a8 8 0 0 1-6.19 2.34 9.56 9.56 0 0 1-3.9-.72 7.39 7.39 0 0 1-2.65-2 7.91 7.91 0 0 1-1.51-2.89 12.55 12.55 0 0 1-.46-3.45v-4.01a13.16 13.16 0 0 1 .31-2.34 7.55 7.55 0 0 1 .83-2.13 4.32 4.32 0 0 1 1.67-1.61l-.06-.31a4.08 4.08 0 0 1-1.53-1.33 6.52 6.52 0 0 1-.83-1.77 8.29 8.29 0 0 1-.34-2c0-.69-.05-1.37-.05-2v-1.56a10 10 0 0 1 .52-3.22 8 8 0 0 1 1.56-2.78 7.39 7.39 0 0 1 2.6-1.95 8.59 8.59 0 0 1 3.69-.73 9.76 9.76 0 0 1 3.79.67 7 7 0 0 1 2.63 1.85 7.59 7.59 0 0 1 1.51 2.73 11 11 0 0 1 .49 3.33v3.77a8.7 8.7 0 0 1-.34 2 5.77 5.77 0 0 1-.83 1.77 3.75 3.75 0 0 1-1.53 1.25zm-4.31-9.62a1.35 1.35 0 0 0-.42-1 1.4 1.4 0 0 0-1-.42 1.66 1.66 0 0 0-1 .42 1.23 1.23 0 0 0-.52 1v5.51a1.27 1.27 0 0 0 .5 1 1.57 1.57 0 0 0 1.06.41 1.39 1.39 0 0 0 1-.41 1.35 1.35 0 0 0 .42-1zm0 13.47a1.34 1.34 0 0 0-.42-1 1.4 1.4 0 0 0-1-.42 1.59 1.59 0 0 0-1.09.42 1.28 1.28 0 0 0-.47 1v7.28a1.19 1.19 0 0 0 .5 1 1.66 1.66 0 0 0 1.06.39 1.46 1.46 0 0 0 1-.39 1.26 1.26 0 0 0 .42-1zm29.59 5.46q0 4.72-2.22 7.28c-1.47 1.7-3.73 2.54-6.78 2.54a8 8 0 0 1-6.34-2.52c-1.5-1.68-2.15-4.22-2-7.62l6.71-.83a8.48 8.48 0 0 0 0 2.24 3.36 3.36 0 0 0 .42 1.27 1.25 1.25 0 0 0 .65.57 1.93 1.93 0 0 0 .67.13 1.8 1.8 0 0 0 1.12-.41 2.24 2.24 0 0 0 .55-1.82v-7.75a1.29 1.29 0 0 0-1.46-1.46 2.7 2.7 0 0 0-1.09.34 2.74 2.74 0 0 0-1.14 1.54h-5.78V322H1056v6.6h-9.63v6.56h.16a3.48 3.48 0 0 1 1.61-.94 6.33 6.33 0 0 1 1.77-.31q3.54 0 5.07 2a8.06 8.06 0 0 1 1.54 5.09zm120.21-119.1A4.29 4.29 0 0 1 1179 232a8.7 8.7 0 0 1 .62 3.12v3.59a10.46 10.46 0 0 1-2.34 7.17q-2.34 2.66-6.92 2.65-9.2 0-8.73-10.19l7-.83a7.52 7.52 0 0 0 0 2.24 3.51 3.51 0 0 0 .47 1.3 1.36 1.36 0 0 0 .67.59 1.94 1.94 0 0 0 .68.13 2.31 2.31 0 0 0 1.25-.44 2 2 0 0 0 .67-1.83v-4.29a2.48 2.48 0 0 0-.83-2.12 3 3 0 0 0-1.87-.62h-1.56v-5.93h2a2.91 2.91 0 0 0 1.8-.57 2.28 2.28 0 0 0 .75-1.93v-3.43a3.12 3.12 0 0 0-.36-1.43 1.33 1.33 0 0 0-1.3-.7 1.91 1.91 0 0 0-.73.15 1.59 1.59 0 0 0-.65.6 4 4 0 0 0-.47 1.28 10.63 10.63 0 0 0-.18 2.18l-6.86-.83a12.22 12.22 0 0 1 .7-4.29 9.17 9.17 0 0 1 2-3.2 8.41 8.41 0 0 1 2.91-2 10.5 10.5 0 0 1 7.59.08 6.94 6.94 0 0 1 4 4.66 11 11 0 0 1 .42 3v2.13c0 .66 0 1.34-.08 2a8.34 8.34 0 0 1-.39 2 6.66 6.66 0 0 1-.88 1.77 4.35 4.35 0 0 1-1.56 1.33zm24.02 13.52v5.09H1194v-5.09h-10.56v-5.78l7.75-25.32h6.81l-7.34 24.44h3.34V230h6.81v6.45h2v6.66zm23.56-2.92a9 9 0 0 1-.63 3.46 7.38 7.38 0 0 1-1.76 2.63 7.8 7.8 0 0 1-2.68 1.66 9.46 9.46 0 0 1-3.3.57 9.85 9.85 0 0 1-3.39-.57 7.7 7.7 0 0 1-2.7-1.66 7.53 7.53 0 0 1-1.77-2.63 9.2 9.2 0 0 1-.62-3.46v-20.12a9 9 0 0 1 .65-3.48 7.75 7.75 0 0 1 1.79-2.66 8 8 0 0 1 2.68-1.66 9.56 9.56 0 0 1 3.36-.57 8.34 8.34 0 0 1 6 2.23 8.17 8.17 0 0 1 2.32 6.14zm-6.92-20.38a1.37 1.37 0 0 0-.44-1.07 1.49 1.49 0 0 0-1-.39 1.68 1.68 0 0 0-1.07.39 1.3 1.3 0 0 0-.5 1.07v20.64a1.24 1.24 0 0 0 .5 1 1.68 1.68 0 0 0 1.07.39 1.49 1.49 0 0 0 1-.39 1.31 1.31 0 0 0 .44-1zm125.34-15.22A4.29 4.29 0 0 1 1345 207a8.7 8.7 0 0 1 .62 3.12v3.59a10.46 10.46 0 0 1-2.34 7.17q-2.34 2.66-6.92 2.65-9.2 0-8.73-10.19l7-.83a7.52 7.52 0 0 0 0 2.24 3.51 3.51 0 0 0 .47 1.3 1.36 1.36 0 0 0 .67.59 1.94 1.94 0 0 0 .68.13 2.31 2.31 0 0 0 1.25-.44 2 2 0 0 0 .67-1.83v-4.29a2.48 2.48 0 0 0-.83-2.12 3 3 0 0 0-1.87-.62h-1.56v-5.93h2a2.91 2.91 0 0 0 1.8-.57 2.28 2.28 0 0 0 .75-1.93v-3.43a3.12 3.12 0 0 0-.36-1.43 1.33 1.33 0 0 0-1.3-.7 1.91 1.91 0 0 0-.73.15 1.59 1.59 0 0 0-.65.6 4 4 0 0 0-.47 1.28 10.63 10.63 0 0 0-.18 2.18l-6.86-.83a12.22 12.22 0 0 1 .7-4.29 9.17 9.17 0 0 1 2-3.2 8.41 8.41 0 0 1 2.91-2 10.5 10.5 0 0 1 7.59.08 6.94 6.94 0 0 1 4 4.66 11 11 0 0 1 .42 3v2.13c0 .66 0 1.34-.08 2a8.34 8.34 0 0 1-.39 2 6.66 6.66 0 0 1-.88 1.77 4.35 4.35 0 0 1-1.56 1.33zm22.51-.21a3.63 3.63 0 0 1 1.51 1.25 5.77 5.77 0 0 1 .78 1.71 9.1 9.1 0 0 1 .31 2c0 .69.06 1.39.06 2.08v3q0 4.47-2.19 6.81a8 8 0 0 1-6.19 2.34 9.56 9.56 0 0 1-3.9-.72 7.39 7.39 0 0 1-2.65-2 7.91 7.91 0 0 1-1.51-2.89 12.55 12.55 0 0 1-.46-3.45v-4.01a13.16 13.16 0 0 1 .31-2.34 7.55 7.55 0 0 1 .83-2.13 4.32 4.32 0 0 1 1.67-1.61l-.06-.31a4.08 4.08 0 0 1-1.53-1.33 6.52 6.52 0 0 1-.83-1.77 8.29 8.29 0 0 1-.34-2v-3.56a10 10 0 0 1 .52-3.22 8 8 0 0 1 1.56-2.78 7.39 7.39 0 0 1 2.6-2 8.59 8.59 0 0 1 3.69-.73 9.76 9.76 0 0 1 3.79.67 7 7 0 0 1 2.63 1.85 7.59 7.59 0 0 1 1.51 2.73 11 11 0 0 1 .49 3.33v3.77a8.7 8.7 0 0 1-.34 2.05 5.77 5.77 0 0 1-.83 1.77 3.75 3.75 0 0 1-1.53 1.25zm-4.31-9.62a1.35 1.35 0 0 0-.42-1 1.4 1.4 0 0 0-1-.42 1.66 1.66 0 0 0-1 .42 1.23 1.23 0 0 0-.52 1v5.51a1.27 1.27 0 0 0 .5 1 1.57 1.57 0 0 0 1.06.41 1.39 1.39 0 0 0 1-.41 1.35 1.35 0 0 0 .42-1zm0 13.47a1.34 1.34 0 0 0-.42-1 1.4 1.4 0 0 0-1-.42 1.59 1.59 0 0 0-1.09.42 1.28 1.28 0 0 0-.47 1v7.28a1.19 1.19 0 0 0 .5 1 1.66 1.66 0 0 0 1.06.39 1.46 1.46 0 0 0 1-.39 1.26 1.26 0 0 0 .42-1zm29.38 6.96a9 9 0 0 1-.63 3.46 7.38 7.38 0 0 1-1.76 2.63 7.8 7.8 0 0 1-2.68 1.66 9.46 9.46 0 0 1-3.3.57 9.85 9.85 0 0 1-3.39-.57 7.7 7.7 0 0 1-2.7-1.66 7.53 7.53 0 0 1-1.77-2.63 9.2 9.2 0 0 1-.62-3.46v-20.12a9 9 0 0 1 .65-3.48 7.75 7.75 0 0 1 1.79-2.66 8 8 0 0 1 2.68-1.66 9.56 9.56 0 0 1 3.36-.57 8.34 8.34 0 0 1 6 2.23 8.17 8.17 0 0 1 2.32 6.14zm-6.92-20.38a1.37 1.37 0 0 0-.44-1.07 1.49 1.49 0 0 0-1-.39 1.68 1.68 0 0 0-1.07.39 1.3 1.3 0 0 0-.5 1.07v20.64a1.24 1.24 0 0 0 .5 1 1.68 1.68 0 0 0 1.07.39 1.49 1.49 0 0 0 1-.39 1.31 1.31 0 0 0 .44-1zm129-26.7v5.09h-6.81v-5.09H1495v-5.78l7.75-25.32h6.87l-7.34 24.44h3.28V155h6.81v6.45h2v6.66zm6.6 5.09V167l8.89-16.45a7.82 7.82 0 0 0 .86-2.36 15.27 15.27 0 0 0 .18-2.42 3.86 3.86 0 0 0-.34-1.5 1.22 1.22 0 0 0-1.22-.78 1.78 1.78 0 0 0-.68.15 1.55 1.55 0 0 0-.65.63 4.73 4.73 0 0 0-.49 1.3 8.88 8.88 0 0 0-.21 2.13l-6.86-.83a13 13 0 0 1 .7-4.51 9 9 0 0 1 1.92-3.17 7.62 7.62 0 0 1 2.84-1.86 9.7 9.7 0 0 1 3.43-.6c3.08 0 5.31.81 6.68 2.45a9.87 9.87 0 0 1 2 6.56 15 15 0 0 1-.52 4.22 22.78 22.78 0 0 1-1.71 4.06l-6.55 12.45h8.32v6.76zm38.12-5.09v5.09h-6.81v-5.09h-10.56v-5.78l7.75-25.32h6.87l-7.37 24.44h3.28V155h6.81v6.45h2v6.66zm113.69-141.42q0 4.72-2.21 7.28c-1.48 1.7-3.74 2.54-6.79 2.54a8 8 0 0 1-6.34-2.52c-1.5-1.68-2.15-4.22-2-7.62l6.71-.83a8.48 8.48 0 0 0 0 2.24 3.36 3.36 0 0 0 .42 1.27 1.28 1.28 0 0 0 .65.57 1.93 1.93 0 0 0 .67.13 1.8 1.8 0 0 0 1.12-.41 2.24 2.24 0 0 0 .55-1.82v-7.75a1.29 1.29 0 0 0-1.46-1.46 2.7 2.7 0 0 0-1.09.34 2.74 2.74 0 0 0-1.14 1.54h-5.78V0h16.18v6.6h-9.62v6.56l.15.05a3.48 3.48 0 0 1 1.61-.94 6.33 6.33 0 0 1 1.77-.31q3.54 0 5.07 2a8.06 8.06 0 0 1 1.54 5.09zm12.48 9.51V8.27l-4.74 3.73V4.21L1684 0h6.24v36.19zm22.35 0V8.27l-4.73 3.73V4.21l5.41-4.21h6.24v36.19z"/><path class="cls-3" d="M182.77 647.36H176a3.25 3.25 0 0 0-3.18 3.3v12.14a3.25 3.25 0 0 0 3.18 3.3h.19v13.45a2.6 2.6 0 0 0 2.55 2.64h1.15a2.59 2.59 0 0 0 2.54-2.64V666.1h.2a3.25 3.25 0 0 0 3.18-3.3v-12.14a3.07 3.07 0 0 0-3.06-3.3m-3.35-9.17a3.76 3.76 0 1 1-3.63 3.76 3.7 3.7 0 0 1 3.63-3.76m31.5 42v-36.78l-6.06 4.86v-5l5.94-4.8h4.86v41.76zm30.48-8.58a10.57 10.57 0 0 1-.72 4.11 7.9 7.9 0 0 1-1.89 2.79 7.37 7.37 0 0 1-2.7 1.59 11.45 11.45 0 0 1-7.38-.21 6.67 6.67 0 0 1-2.64-2 7.12 7.12 0 0 1-1.35-3 15.44 15.44 0 0 1-.24-3.93l4.74-.66a7.38 7.38 0 0 0 .57 4.32 3.26 3.26 0 0 0 3.15 1.62 3.87 3.87 0 0 0 2.67-1 4.46 4.46 0 0 0 1.11-3.45v-6.3a5.4 5.4 0 0 0-1-3.63 4.19 4.19 0 0 0-3.27-1.11h-1.86v-4.14h2a4.21 4.21 0 0 0 3.18-1 4.92 4.92 0 0 0 1-3.42v-5.34a8.24 8.24 0 0 0-.15-1.56 4.2 4.2 0 0 0-.51-1.38 2.63 2.63 0 0 0-1-1 3.63 3.63 0 0 0-1.74-.36 3.38 3.38 0 0 0-3.09 1.59 7.93 7.93 0 0 0-1 4.23l-4.74-.66a13 13 0 0 1 .66-3.81 9.12 9.12 0 0 1 1.71-3.06 7.83 7.83 0 0 1 2.79-2 9.65 9.65 0 0 1 4-.75 8.89 8.89 0 0 1 3.72.69 6.52 6.52 0 0 1 2.43 1.86 7.09 7.09 0 0 1 1.32 2.73 13.31 13.31 0 0 1 .39 3.24v4.26q0 1.2-.09 2.31a8.44 8.44 0 0 1-.42 2.07 5.44 5.44 0 0 1-1 1.77 6.46 6.46 0 0 1-1.95 1.47v.18a6.31 6.31 0 0 1 1.89 1.23 4.62 4.62 0 0 1 1.05 1.62 7.36 7.36 0 0 1 .45 2.1q.09 1.17.09 2.61zm107.16-51.25h-7.27a3.38 3.38 0 0 0-3.43 3.3v12.14a3.37 3.37 0 0 0 3.43 3.3h.2v13.45a2.7 2.7 0 0 0 2.75 2.64h1.23a2.69 2.69 0 0 0 2.74-2.64V639.1h.21a3.38 3.38 0 0 0 3.43-3.3v-12.14a3.17 3.17 0 0 0-3.29-3.3m-3.64-9.17A3.76 3.76 0 1 1 341 615a3.84 3.84 0 0 1 3.91-3.76m31.99 41.95v-36.78l-6.06 4.86v-5l5.94-4.8h4.86v41.76zm23.58-18.48a5 5 0 0 1-3.12 1 7.44 7.44 0 0 1-3.27-.63 5.45 5.45 0 0 1-2.07-1.71 6.87 6.87 0 0 1-1.11-2.52 13.39 13.39 0 0 1-.33-3v-8.76a8.25 8.25 0 0 1 .69-3.48 7.39 7.39 0 0 1 1.86-2.52 7.83 7.83 0 0 1 2.7-1.53A10.08 10.08 0 0 1 399 611a8.88 8.88 0 0 1 6.24 2 7.75 7.75 0 0 1 2.22 6v7a23.5 23.5 0 0 1-.36 4.5 19 19 0 0 1-.9 3.18l-7.74 19.5h-4.8l7-18.3zm-5.16-6.66a3.21 3.21 0 0 0 1 2.49 3.77 3.77 0 0 0 2.64.93 3.53 3.53 0 0 0 1.8-.42 3.71 3.71 0 0 0 1.17-1 3.9 3.9 0 0 0 .63-1.44 7.32 7.32 0 0 0 .18-1.59v-8.28a3 3 0 0 0-1.05-2.43 4.53 4.53 0 0 0-5.34 0 3 3 0 0 0-1.05 2.43zm121.45-55.69H510a3.25 3.25 0 0 0-3.18 3.3v12.14a3.25 3.25 0 0 0 3.18 3.3h.19v13.45a2.6 2.6 0 0 0 2.55 2.64h1.15a2.59 2.59 0 0 0 2.54-2.64V591.1h.2a3.25 3.25 0 0 0 3.18-3.3v-12.14a3.07 3.07 0 0 0-3.06-3.3m-3.35-9.17a3.76 3.76 0 1 1-3.63 3.76 3.7 3.7 0 0 1 3.63-3.76m31.9 4.38a3.14 3.14 0 0 0-2.91 1.71 11.14 11.14 0 0 0-.87 5v.36l-4.74-.84v-.24a17.85 17.85 0 0 1 .48-4.32 9 9 0 0 1 1.53-3.3 6.93 6.93 0 0 1 2.7-2.13 9.44 9.44 0 0 1 3.93-.75 10.51 10.51 0 0 1 4 .66 6.72 6.72 0 0 1 2.64 1.86 7.28 7.28 0 0 1 1.47 2.91 15 15 0 0 1 .45 3.81 21.44 21.44 0 0 1-2.28 9.6l-9.36 18.9h11.34v4.38H536.9v-4.14l10.86-21.66a9.85 9.85 0 0 0 1-3.42 31 31 0 0 0 .21-3.6 12.51 12.51 0 0 0-.12-1.71 4.75 4.75 0 0 0-.48-1.56 2.7 2.7 0 0 0-1.11-1.11 4.11 4.11 0 0 0-1.96-.41zm29.76 31.02v6.6h-4.74v-6.6H558v-4.26l8.76-30.9h4.68l-8.82 30.9h7.68v-11.58h4.74v11.58H578v4.26zm100.71-31.23H669a3.25 3.25 0 0 0-3.18 3.3v12.14a3.25 3.25 0 0 0 3.18 3.3h.19v13.45a2.6 2.6 0 0 0 2.55 2.64h1.15a2.59 2.59 0 0 0 2.54-2.64V586.1h.2a3.25 3.25 0 0 0 3.18-3.3v-12.14a3.07 3.07 0 0 0-3.06-3.3m-3.35-9.17a3.76 3.76 0 1 1-3.63 3.76 3.7 3.7 0 0 1 3.63-3.76m30.9 5.38a3.14 3.14 0 0 0-2.91 1.71 11.14 11.14 0 0 0-.87 5v.36l-4.74-.84v-.24a17.85 17.85 0 0 1 .48-4.32 9 9 0 0 1 1.53-3.3 6.93 6.93 0 0 1 2.7-2.13 9.44 9.44 0 0 1 3.93-.75 10.51 10.51 0 0 1 4 .66 6.72 6.72 0 0 1 2.64 1.86 7.28 7.28 0 0 1 1.47 2.91 15 15 0 0 1 .45 3.81 21.44 21.44 0 0 1-2.28 9.6l-9.36 18.9h11.34v4.38H694.9v-4.14l10.86-21.66a9.85 9.85 0 0 0 1-3.42 31 31 0 0 0 .21-3.6 12.51 12.51 0 0 0-.12-1.71 4.75 4.75 0 0 0-.48-1.56 2.7 2.7 0 0 0-1.11-1.11 4.11 4.11 0 0 0-1.96-.41zm31.08 29.04a10.57 10.57 0 0 1-.72 4.11 7.9 7.9 0 0 1-1.89 2.79 7.37 7.37 0 0 1-2.7 1.59 11.45 11.45 0 0 1-7.38-.21 6.67 6.67 0 0 1-2.64-2 7.12 7.12 0 0 1-1.35-3 15.44 15.44 0 0 1-.24-3.93l4.74-.66a7.38 7.38 0 0 0 .57 4.32 3.26 3.26 0 0 0 3.15 1.62 3.87 3.87 0 0 0 2.67-1 4.46 4.46 0 0 0 1.11-3.45v-6.3a5.4 5.4 0 0 0-1-3.63 4.19 4.19 0 0 0-3.27-1.11h-1.86v-4.14h2a4.21 4.21 0 0 0 3.18-1 4.92 4.92 0 0 0 1-3.42v-5.34a8.24 8.24 0 0 0-.15-1.56 4.2 4.2 0 0 0-.51-1.38 2.63 2.63 0 0 0-1-1 3.63 3.63 0 0 0-1.74-.36 3.38 3.38 0 0 0-3.09 1.59 7.93 7.93 0 0 0-1 4.23l-4.74-.66a13 13 0 0 1 .66-3.81 9.12 9.12 0 0 1 1.71-3.06 7.83 7.83 0 0 1 2.79-2 9.65 9.65 0 0 1 4-.75 8.89 8.89 0 0 1 3.72.69 6.52 6.52 0 0 1 2.43 1.86 7.09 7.09 0 0 1 1.32 2.73 13.31 13.31 0 0 1 .39 3.24v4.26q0 1.2-.09 2.31a8.44 8.44 0 0 1-.42 2.07 5.44 5.44 0 0 1-1 1.77 6.46 6.46 0 0 1-1.95 1.47v.18a6.31 6.31 0 0 1 1.89 1.23 4.62 4.62 0 0 1 1 1.62 7.36 7.36 0 0 1 .45 2.1q.09 1.17.09 2.61zm110.16-79.25h-7.27a3.38 3.38 0 0 0-3.43 3.3v12.14a3.37 3.37 0 0 0 3.43 3.3h.2v13.45a2.7 2.7 0 0 0 2.75 2.64h1.23a2.69 2.69 0 0 0 2.74-2.64V532.1h.21a3.38 3.38 0 0 0 3.43-3.3v-12.14a3.17 3.17 0 0 0-3.29-3.3m-3.64-9.17A3.76 3.76 0 1 1 837 508a3.84 3.84 0 0 1 3.91-3.76m39.67 33.37a10.57 10.57 0 0 1-.72 4.11 7.9 7.9 0 0 1-1.89 2.79 7.37 7.37 0 0 1-2.7 1.59 11.45 11.45 0 0 1-7.38-.21 6.67 6.67 0 0 1-2.64-2 7.12 7.12 0 0 1-1.35-3 15.44 15.44 0 0 1-.24-3.93l4.74-.66a7.38 7.38 0 0 0 .57 4.32 3.26 3.26 0 0 0 3.15 1.62 3.87 3.87 0 0 0 2.67-1 4.46 4.46 0 0 0 1.11-3.45v-6.3a5.4 5.4 0 0 0-1-3.63 4.19 4.19 0 0 0-3.27-1.11h-1.86v-4.14h2a4.21 4.21 0 0 0 3.18-1 4.92 4.92 0 0 0 1-3.42v-5.34a8.24 8.24 0 0 0-.15-1.56 4.2 4.2 0 0 0-.51-1.38 2.63 2.63 0 0 0-1-1 3.63 3.63 0 0 0-1.74-.36 3.38 3.38 0 0 0-3.09 1.59 7.93 7.93 0 0 0-1 4.23l-4.74-.66a13 13 0 0 1 .66-3.81 9.12 9.12 0 0 1 1.71-3.06 7.83 7.83 0 0 1 2.79-2 9.65 9.65 0 0 1 4-.75 8.89 8.89 0 0 1 3.72.69 6.52 6.52 0 0 1 2.43 1.86 7.09 7.09 0 0 1 1.32 2.73 13.31 13.31 0 0 1 .39 3.24v4.26q0 1.2-.09 2.31a8.44 8.44 0 0 1-.42 2.07 5.44 5.44 0 0 1-1 1.77 6.46 6.46 0 0 1-2 1.47v.18a6.31 6.31 0 0 1 1.89 1.23 4.62 4.62 0 0 1 1.05 1.62 7.36 7.36 0 0 1 .45 2.1q.09 1.17.09 2.61zm14.28 9a9.72 9.72 0 0 1-4.08-.75 6.84 6.84 0 0 1-2.61-2 8.33 8.33 0 0 1-1.44-3.06 17.53 17.53 0 0 1-.51-3.81l4.74-.66a21.86 21.86 0 0 0 .12 2.4 5.08 5.08 0 0 0 .54 1.86 3.09 3.09 0 0 0 1.2 1.23 4.34 4.34 0 0 0 2.16.45 3.55 3.55 0 0 0 2.58-1 5.07 5.07 0 0 0 1.14-3.45V527q0-3.54-3.48-3.54a4.17 4.17 0 0 0-2.34.63 3.89 3.89 0 0 0-1.44 1.71h-4.14v-21.37h16.2v4.26h-12v12.6h.3a5.67 5.67 0 0 1 2.22-1.35 8.31 8.31 0 0 1 2.7-.45q3.54 0 5.07 2a7.71 7.71 0 0 1 1.53 4.86v11.28a11.43 11.43 0 0 1-.66 4.11 7.12 7.12 0 0 1-4.53 4.38 10.28 10.28 0 0 1-3.27.49zm113.92-108.46H1002a3.22 3.22 0 0 0-3.18 3.23v11.86a3.22 3.22 0 0 0 3.18 3.22h.2v13.15a2.57 2.57 0 0 0 2.54 2.58h1.15a2.57 2.57 0 0 0 2.55-2.58v-13.15h.19a3.21 3.21 0 0 0 3.18-3.22v-11.86a3 3 0 0 0-3.05-3.23m-3.36-8.96a3.68 3.68 0 1 1-3.63 3.68 3.65 3.65 0 0 1 3.63-3.68m37.86 35.4v6.6h-4.74v-6.6h-12.3v-4.26l8.76-30.9h4.68l-8.82 30.9h7.68v-11.58h4.74v11.58h2.94v4.26zm14.34-16.74a5 5 0 0 1 3.12-1 7.44 7.44 0 0 1 3.27.63 5.56 5.56 0 0 1 2.07 1.72 6.87 6.87 0 0 1 1.11 2.52 13.55 13.55 0 0 1 .33 3v8.78a8.26 8.26 0 0 1-.69 3.49 7.43 7.43 0 0 1-1.86 2.53 7.83 7.83 0 0 1-2.7 1.53 10.36 10.36 0 0 1-6.42 0 7.83 7.83 0 0 1-2.7-1.53 7.39 7.39 0 0 1-1.86-2.52 8.25 8.25 0 0 1-.69-3.48v-7a23.5 23.5 0 0 1 .36-4.5 19 19 0 0 1 .9-3.18l7.74-19.5h4.8l-7 18.24zm5.16 6.72a3 3 0 0 0-1-2.43 3.93 3.93 0 0 0-2.64-.87 3.75 3.75 0 0 0-1.8.39 3.41 3.41 0 0 0-1.17 1 3.91 3.91 0 0 0-.63 1.41 6.92 6.92 0 0 0-.18 1.56v8.28a3 3 0 0 0 1 2.43 4.53 4.53 0 0 0 5.34 0 3 3 0 0 0 1-2.43zm113.78-128.21h-7.27a3.38 3.38 0 0 0-3.43 3.3v12.14a3.38 3.38 0 0 0 3.43 3.3h.21v13.45a2.69 2.69 0 0 0 2.74 2.64h1.23a2.7 2.7 0 0 0 2.75-2.64V345.1h.2a3.38 3.38 0 0 0 3.43-3.3v-12.14a3.17 3.17 0 0 0-3.29-3.3m-3.64-9.17a3.76 3.76 0 1 1-3.9 3.81 3.84 3.84 0 0 1 3.9-3.76m31.16 42.37a9.72 9.72 0 0 1-4.08-.75 6.84 6.84 0 0 1-2.61-2 8.33 8.33 0 0 1-1.44-3.06 17.53 17.53 0 0 1-.51-3.81l4.74-.66a21.86 21.86 0 0 0 .12 2.4 5.08 5.08 0 0 0 .54 1.86 3.09 3.09 0 0 0 1.2 1.23 4.34 4.34 0 0 0 2.16.45 3.55 3.55 0 0 0 2.58-1 5.07 5.07 0 0 0 1.14-3.45V340q0-3.54-3.48-3.54a4.17 4.17 0 0 0-2.34.63 3.89 3.89 0 0 0-1.44 1.71h-4.14v-21.37h16.2v4.26h-12v12.6h.3a5.67 5.67 0 0 1 2.22-1.35 8.31 8.31 0 0 1 2.7-.45q3.54 0 5.07 2a7.71 7.71 0 0 1 1.53 4.86v11.28a11.43 11.43 0 0 1-.66 4.11 7.12 7.12 0 0 1-4.53 4.38 10.28 10.28 0 0 1-3.27.49zm23.04-38.04a3.14 3.14 0 0 0-2.91 1.71 11.14 11.14 0 0 0-.87 5v.36l-4.74-.84v-.24a17.85 17.85 0 0 1 .48-4.32 9 9 0 0 1 1.53-3.3 6.93 6.93 0 0 1 2.7-2.13 9.44 9.44 0 0 1 3.93-.75 10.51 10.51 0 0 1 4 .66 6.72 6.72 0 0 1 2.64 1.86 7.28 7.28 0 0 1 1.47 2.91 15 15 0 0 1 .45 3.81 21.44 21.44 0 0 1-2.28 9.6l-9.36 18.9h11.34v4.38h-16.78v-4.14l10.86-21.66a9.85 9.85 0 0 0 1-3.42 31 31 0 0 0 .21-3.6 12.51 12.51 0 0 0-.12-1.71 4.75 4.75 0 0 0-.48-1.56 2.7 2.7 0 0 0-1.11-1.11 4.11 4.11 0 0 0-1.96-.41zm113.44-16.42h-7.27a3.35 3.35 0 0 0-3.43 3.23v11.86a3.34 3.34 0 0 0 3.43 3.22h.21v13.15a2.67 2.67 0 0 0 2.74 2.58h1.23a2.68 2.68 0 0 0 2.75-2.58v-13.15h.2a3.34 3.34 0 0 0 3.43-3.22v-11.86a3.14 3.14 0 0 0-3.29-3.23m-3.64-8.96a3.68 3.68 0 1 1-3.91 3.68 3.8 3.8 0 0 1 3.91-3.68m31.16 42.42a9.72 9.72 0 0 1-4.08-.75 6.84 6.84 0 0 1-2.61-2 8.33 8.33 0 0 1-1.44-3.06 17.53 17.53 0 0 1-.51-3.81l4.74-.66a21.86 21.86 0 0 0 .12 2.4 5.08 5.08 0 0 0 .54 1.86 3.09 3.09 0 0 0 1.2 1.23 4.34 4.34 0 0 0 2.16.45 3.55 3.55 0 0 0 2.58-1 5.07 5.07 0 0 0 1.14-3.45V319q0-3.54-3.48-3.54a4.17 4.17 0 0 0-2.34.63 3.89 3.89 0 0 0-1.44 1.71h-4.14v-21.37h16.2v4.26h-12v12.6h.3a5.67 5.67 0 0 1 2.22-1.35 8.31 8.31 0 0 1 2.7-.45q3.54 0 5.07 2a7.71 7.71 0 0 1 1.53 4.86v11.28a11.43 11.43 0 0 1-.66 4.11 7.12 7.12 0 0 1-4.53 4.38 10.28 10.28 0 0 1-3.27.49zm22.8 0a9.72 9.72 0 0 1-4.08-.75 6.84 6.84 0 0 1-2.61-2 8.33 8.33 0 0 1-1.44-3.06 17.53 17.53 0 0 1-.51-3.81l4.74-.66a21.86 21.86 0 0 0 .12 2.4 5.08 5.08 0 0 0 .54 1.86 3.09 3.09 0 0 0 1.2 1.23 4.34 4.34 0 0 0 2.16.45 3.55 3.55 0 0 0 2.58-1 5.07 5.07 0 0 0 1.14-3.45V319q0-3.54-3.48-3.54a4.17 4.17 0 0 0-2.34.63 3.89 3.89 0 0 0-1.44 1.71h-4.14v-21.37h16.2v4.26h-12v12.6h.3a5.67 5.67 0 0 1 2.22-1.35 8.31 8.31 0 0 1 2.7-.45q3.54 0 5.07 2a7.71 7.71 0 0 1 1.53 4.86v11.28a11.43 11.43 0 0 1-.66 4.11 7.12 7.12 0 0 1-4.53 4.38 10.28 10.28 0 0 1-3.27.49zm121.68-79.25h-7.27a3.38 3.38 0 0 0-3.43 3.3v12.14a3.38 3.38 0 0 0 3.43 3.3h.2v13.45a2.7 2.7 0 0 0 2.75 2.64h1.23a2.7 2.7 0 0 0 2.75-2.64V278.1h.2a3.38 3.38 0 0 0 3.43-3.3v-12.14a3.17 3.17 0 0 0-3.29-3.3m-3.64-9.17a3.76 3.76 0 1 1-3.9 3.81 3.84 3.84 0 0 1 3.91-3.76m29.89 18.61a5 5 0 0 1 3.12-1 7.44 7.44 0 0 1 3.27.63 5.56 5.56 0 0 1 2.07 1.72 6.87 6.87 0 0 1 1.11 2.52 13.55 13.55 0 0 1 .33 3v8.78a8.26 8.26 0 0 1-.7 3.5 7.43 7.43 0 0 1-1.86 2.53 7.83 7.83 0 0 1-2.7 1.53 10.36 10.36 0 0 1-6.42 0 7.83 7.83 0 0 1-2.7-1.53 7.39 7.39 0 0 1-1.86-2.52 8.25 8.25 0 0 1-.69-3.48v-7a23.5 23.5 0 0 1 .36-4.5 19 19 0 0 1 .9-3.18l7.74-19.5h4.8l-7 18.24zm5.16 6.72a3 3 0 0 0-1-2.43 3.93 3.93 0 0 0-2.64-.87 3.75 3.75 0 0 0-1.8.39 3.41 3.41 0 0 0-1.17 1 3.91 3.91 0 0 0-.63 1.41 6.92 6.92 0 0 0-.18 1.56v8.28a3 3 0 0 0 1 2.43 4.53 4.53 0 0 0 5.34 0 3 3 0 0 0 1-2.43zm19.74 16.62v-36.78l-6.06 4.86v-5l5.94-4.8h4.86v41.76zm104.08-163.83H1661a3.25 3.25 0 0 0-3.18 3.3v12.14a3.25 3.25 0 0 0 3.18 3.3h.19v13.45a2.6 2.6 0 0 0 2.55 2.64h1.15a2.6 2.6 0 0 0 2.55-2.64V147.1h.19a3.25 3.25 0 0 0 3.18-3.3v-12.14a3.07 3.07 0 0 0-3-3.3m-3.41-9.17a3.76 3.76 0 1 1-3.63 3.76 3.7 3.7 0 0 1 3.63-3.76m28.68 42h-4.56l10.5-37.5h-8.28v5h-4.14v-9.24h17.22v3.9zm31.98-6.6v6.6h-4.74v-6.6H1708v-4.26l8.76-30.9h4.68l-8.82 30.9h7.68v-11.58h4.74v11.58h2.96v4.26z"/><path class="cls-1" d="M1689.94 702.2h-3v-6h3zm0-12h-3v-6h3zm0-12h-3v-6h3zm0-12h-3v-6h3zm0-12h-3v-6h3zm0-12h-3v-6h3zm0-12h-3v-6h3zm0-12h-3v-6h3zm0-12h-3v-6h3zm0-12h-3v-6h3zm0-12h-3v-6h3zm0-12h-3v-6h3zm0-12h-3v-6h3zm0-12h-3v-6h3zm0-12h-3v-6h3zm0-12h-3v-6h3zm0-12h-3v-6h3zm0-12h-3v-6h3zm0-12h-3v-6h3zm0-12h-3v-6h3zm0-12h-3v-6h3zm0-12h-3v-6h3zm0-12h-3v-6h3zm0-12h-3v-6h3zm0-12h-3v-6h3zm0-12h-3v-6h3zm0-12h-3v-6h3zm0-12h-3v-6h3zm0-12h-3v-6h3zm0-12h-3v-6h3zm0-12h-3v-6h3zm0-12h-3v-6h3zm0-12h-3v-6h3zm0-12h-3v-6h3zm0-12h-3v-6h3zm0-12h-3v-6h3zm0-12h-3v-6h3zm0-12h-3v-6h3zm0-12h-3v-6h3zm0-12h-3v-6h3zm0-12h-3v-6h3zm0-12h-3v-6h3zm0-12h-3v-6h3zm0-12h-3v-6h3zM1531 705.81h-3v-6h3zm0-12h-3v-6h3zm0-12h-3v-6h3zm0-12h-3v-6h3zm0-12h-3v-6h3zm0-12h-3v-6h3zm0-12h-3v-6h3zm0-12h-3v-6h3zm0-12h-3v-6h3zm0-12h-3v-6h3zm0-12h-3v-6h3zm0-12h-3v-6h3zm0-12h-3v-6h3zm0-12h-3v-6h3zm0-12h-3v-6h3zm0-12h-3v-6h3zm0-12h-3v-6h3zm0-12h-3v-6h3zm0-12h-3v-6h3zm0-12h-3v-6h3zm0-12h-3v-6h3zm0-12h-3v-6h3zm0-12h-3v-6h3zm0-12h-3v-6h3zm0-12h-3v-6h3zm0-12h-3v-6h3zm0-12h-3v-6h3zm0-12h-3v-6h3zm0-12h-3v-6h3zm0-12h-3v-6h3zm0-12h-3v-6h3zm0-12h-3v-6h3zm0-12h-3v-6h3zm0-12h-3v-6h3zm-167.07 394.74h-3v-6h3zm0-12h-3v-6h3zm0-12h-3v-6h3zm0-12h-3v-6h3zm0-12h-3v-6h3zm0-12h-3v-6h3zm0-12h-3v-6h3zm0-12h-3v-6h3zm0-12h-3v-6h3zm0-12h-3v-6h3zm0-12h-3v-6h3zm0-12h-3v-6h3zm0-12h-3v-6h3zm0-12h-3v-6h3zm0-12h-3v-6h3zm0-12h-3v-6h3zm0-12h-3v-6h3zm0-12h-3v-6h3zm0-12h-3v-6h3zm0-12h-3v-6h3zm0-12h-3v-6h3zm0-12h-3v-6h3zm0-12h-3v-6h3zm0-12h-3v-6h3zm0-12h-3v-6h3zm0-12h-3v-6h3zm0-12h-3v-6h3zm0-12h-3v-6h3zm0-12h-3v-6h3zm0-12h-3v-5h3zm-164.76 341.53h-3v-6h3zm0-12h-3v-6h3zm0-12h-3v-6h3zm0-12h-3v-6h3zm0-12h-3v-6h3zm0-12h-3v-6h3zm0-12h-3v-6h3zm0-12h-3v-6h3zm0-12h-3v-6h3zm0-12h-3v-6h3zm0-12h-3v-6h3zm0-12h-3v-6h3zm0-12h-3v-6h3zm0-12h-3v-6h3zm0-12h-3v-6h3zm0-12h-3v-6h3zm0-12h-3v-6h3zm0-12h-3v-6h3zm0-12h-3v-6h3zm0-12h-3v-6h3zm0-12h-3v-6h3zm0-12h-3v-6h3zm0-12h-3v-6h3zm0-12h-3v-6h3zm0-12h-3v-6h3zm0-12h-3v-6h3zm0-12h-3v-6h3zm0-12h-3v-5.79h3zM1032.09 701.1h-3v-6h3zm0-12h-3v-6h3zm0-12h-3v-6h3zm0-12h-3v-6h3zm0-12h-3v-6h3zm0-12h-3v-6h3zm0-12h-3v-6h3zm0-12h-3v-6h3zm0-12h-3v-6h3zm0-12h-3v-6h3zm0-12h-3v-6h3zm0-12h-3v-6h3zm0-12h-3v-6h3zm0-12h-3v-6h3zm0-12h-3v-6h3zm0-12h-3v-6h3zm0-12h-3v-6h3zm0-12h-3v-6h3zm0-12h-3v-5.54h3zM867 703.68h-3v-6h3zm0-12h-3v-6h3zm0-12h-3v-6h3zm0-12h-3v-6h3zm0-12h-3v-6h3zm0-12h-3v-6h3zm0-12h-3v-6h3zm0-12h-3v-6h3zm0-12h-3v-6h3zm0-12h-3v-6h3zm0-12h-3v-6h3zm0-12h-3v-6h3zm0-12h-3v-.59h3zM700 705.19h-3v-6h3zm0-12h-3v-6h3zm0-12h-3v-6h3zm0-12h-3v-6h3zm0-12h-3v-6h3zm0-12h-3v-6h3zm0-12h-3v-6h3zm0-12h-3v-6h3zm0-12h-3v-1.77h3zm-162.46 96.53h-3v-6h3zm0-12h-3v-6h3zm0-12h-3v-6h3zm0-12h-3v-6h3zm0-12h-3v-6h3zm0-12h-3v-6h3zm0-12h-3v-6h3zm0-12h-3v-6h3zm-166.93 84.54h-3v-6h3zm0-12h-3v-6h3zm0-12h-3v-6h3zm0-12h-3v-6h3z"/><path class="cls-3" d="M2.07 93.47h682l-14.02 107.45 14.02 107.44h-682V93.47z"/><path class="cls-4" d="M26.68 308.66L10.9 324.43h6.36l15.78-15.77h-6.36zm85.19 0l-15.78 15.77h6.37l15.77-15.77h-6.36zm-34.08 0l-15.77 15.77h6.36l15.78-15.77h-6.37zm51.12 0l-15.78 15.77h6.37l15.77-15.77h-6.36zm-68.16 0l-15.77 15.77h6.36l15.78-15.77h-6.37zm-17.04 0l-15.77 15.77h6.36l15.78-15.77h-6.37zm51.12 0l-15.77 15.77h6.36l15.77-15.77h-6.36zm51.12 0l-15.78 15.77h6.37l15.77-15.77h-6.36zm85.19 0l-15.77 15.77h6.36l15.78-15.77h-6.37zm-34.08 0l-15.77 15.77h6.36l15.78-15.77h-6.37zm17.04 0l-15.77 15.77h6.36l15.78-15.77h-6.37zm-51.11 0l-15.78 15.77h6.36l15.78-15.77h-6.36zm17.04 0l-15.78 15.77h6.36l15.78-15.77h-6.36zm68.15 0l-15.77 15.77h6.36l15.78-15.77h-6.37zm450.13-160.47l-24.01 24.02-.96 7.31 24.02-24.01.95-7.32zm-6.07 46.51l.96-7.32-21.67 21.67.74 5.63 19.97-19.98zm2.56-19.6l.95-7.31-24.01 24.01-.96 7.32 24.02-24.02zm3.36 109.55l-14.82 14.83.73 5.63 14.83-14.83-.74-5.63zm-19.7-144.32l24.01-24.01.89-6.78h-.48l-23.47 23.47-.95 7.32zm11.22 73.97l.96-7.32-17.14 17.14.74 5.63 15.44-15.45zM9.63 308.66l-7.56 7.56v6.36L16 308.66H9.63zm687.3-33.45l-.73-5.63-14.83 14.83.73 5.63 14.83-14.83zm3.94-146.62l-24.02 24.02-.95 7.32 24.01-24.02.96-7.32zm-19.86-7.86l11.2-11.19h-6.37l-3.87 3.88-.96 7.31zM693 245.06l-.74-5.63-14.83 14.83.74 5.63L693 245.06zm-1.97-15.07l-.73-5.63-14.83 14.83.73 5.63 14.83-14.83zm3.93 30.14l-.73-5.62-14.83 14.82.74 5.63 14.82-14.83zm-2.5 64.3h6.37l4-4.01-.73-5.63-9.64 9.64zm-137.58-15.77l-15.77 15.77h6.36l15.78-15.77h-6.37zm17.04 0l-15.77 15.77h6.36l15.78-15.77h-6.37zm17.04 0l-15.77 15.77h6.36l15.78-15.77h-6.37zm-102.23 0l-15.78 15.77h6.37l15.77-15.77h-6.36zm34.08 0l-15.78 15.77h6.37l15.77-15.77h-6.36zm-17.04 0l-15.78 15.77h6.37l15.77-15.77h-6.36zm34.08 0l-15.78 15.77h6.36l15.78-15.77h-6.36zm136.31 0l-15.78 15.77h6.37l15.77-15.77h-6.36zm25.97-8.94l-24.71 24.71h6.37l19.08-19.08-.74-5.63zm-434.91 8.94l-15.77 15.77h6.36l15.77-15.77h-6.36zm357.82 0l-15.77 15.77h6.36l15.77-15.77h-6.36zm17.04 0l-15.78 15.77h6.37l15.77-15.77h-6.36zm-34.08 0l-15.77 15.77h6.36l15.78-15.77H606zm51.12 0l-15.78 15.77h6.37l15.77-15.77h-6.36zm-340.78 0l-15.78 15.77h6.37l15.77-15.77h-6.36zm51.12 0l-15.78 15.77h6.36l15.78-15.77h-6.36zm-17.04 0l-15.78 15.77H341l15.78-15.77h-6.36zm-17.04 0l-15.78 15.77h6.37l15.77-15.77h-6.36zm-51.12 0l-15.77 15.77h6.36l15.77-15.77h-6.36zm17.04 0l-15.78 15.77h6.37l15.77-15.77h-6.36zm136.31 0l-15.77 15.77h6.36l15.78-15.77h-6.37zm17.04 0l-15.77 15.77h6.36l15.77-15.77h-6.36zm17.04 0l-15.77 15.77h6.36l15.77-15.77h-6.36zm-51.12 0l-15.77 15.77h6.36l15.78-15.77h-6.37zm-34.07 0l-15.78 15.77h6.36l15.78-15.77h-6.36zm17.03 0l-15.77 15.77h6.36l15.78-15.77h-6.37z"/><path class="cls-5" d="M45.17 253.55l35.53-17.86v-6.88L45 211v9.46l25.88 11.84L45.17 244zm94.06-91.08a7.8 7.8 0 0 1 2.31 2.56 9.49 9.49 0 0 1 1.08 3.31 25.63 25.63 0 0 1 .24 3.31 66.2 66.2 0 0 1-.57 8.86 25.34 25.34 0 0 1-2.9 8.52q-7.27 14.08-14.46 28.06t-14.62 28.06v15.56h49.58V244H131l23.31-45.85a73.23 73.23 0 0 0 5.2-12.75 45 45 0 0 0 1.49-13.56q0-12.4-5.95-19.78t-19.66-7.36q-11.91 0-19 8t-7.11 22.72l17.52 2q0-8.92 2.32-12.4a7.47 7.47 0 0 1 6.11-3.63 6.62 6.62 0 0 1 4 1.08zm88.58-1.74v-15h-50.74v28.75h15.7v-12.43h16.53l-28.09 98.66h17.51zm66.77 8.59q0-11.73-7-18.18t-18.07-6.44a28.8 28.8 0 0 0-9.87 1.65 23.33 23.33 0 0 0-8 4.79 22.61 22.61 0 0 0-5.38 7.77 26 26 0 0 0-2 10.41v68.09a25.45 25.45 0 0 0 2 10.33 22.76 22.76 0 0 0 5.38 7.69 22.39 22.39 0 0 0 8 4.71 30.3 30.3 0 0 0 9.87 1.57 29.75 29.75 0 0 0 9.7-1.57 22.39 22.39 0 0 0 8-4.71 22.79 22.79 0 0 0 5.39-7.69 25.45 25.45 0 0 0 2-10.33zm-17.85 68.59a6.7 6.7 0 0 1-2.07 5.2 7.37 7.37 0 0 1-5.2 1.9 7.91 7.91 0 0 1-5.46-1.9 6.58 6.58 0 0 1-2.14-5.2v-69.42a6.59 6.59 0 0 1 2.14-5.2 7.91 7.91 0 0 1 5.46-1.9 7.37 7.37 0 0 1 5.2 1.9 6.71 6.71 0 0 1 2.07 5.2zm84.78-68.59q0-11.73-7-18.18t-18.08-6.44a28.78 28.78 0 0 0-9.86 1.65 23.33 23.33 0 0 0-8 4.79 22.64 22.64 0 0 0-5.39 7.77 26 26 0 0 0-2 10.41v68.09a25.45 25.45 0 0 0 2 10.33 22.79 22.79 0 0 0 5.39 7.69 22.39 22.39 0 0 0 8 4.71 30.28 30.28 0 0 0 9.86 1.57 29.75 29.75 0 0 0 9.7-1.57 22.39 22.39 0 0 0 8-4.71 22.79 22.79 0 0 0 5.39-7.69 25.45 25.45 0 0 0 2-10.33zm-17.85 68.59a6.73 6.73 0 0 1-2.06 5.2 7.4 7.4 0 0 1-5.21 1.9 7.9 7.9 0 0 1-5.45-1.9 6.55 6.55 0 0 1-2.15-5.2v-69.42a6.57 6.57 0 0 1 2.15-5.2 7.9 7.9 0 0 1 5.45-1.9 7.4 7.4 0 0 1 5.21 1.9 6.74 6.74 0 0 1 2.06 5.2zm76.9-46.59v-45.41h-21.27v45.41h7V152.7h7.18v38.62zm6.79-45.41v45.41h7V173.9h2.87a14.33 14.33 0 0 0 5.84-1 9.74 9.74 0 0 0 3.75-2.91 11.18 11.18 0 0 0 2-4.47 25.87 25.87 0 0 0 .59-5.8q0-7.25-2.9-10.5t-9.17-3.27zm9.65 6.59c2.18 0 3.66.65 4.47 1.94a12.49 12.49 0 0 1-.07 10.87q-1.26 1.88-4.53 1.87h-2.48V152.5zm31.77 27.6a6.58 6.58 0 0 1-.91 3.55 4 4 0 0 1-6.1.07 5.82 5.82 0 0 1-.88-3.17v-22.83a11.69 11.69 0 0 1 .16-1.86 5.81 5.81 0 0 1 .59-1.82 3.75 3.75 0 0 1 1.2-1.37 3.45 3.45 0 0 1 2-.56 3.19 3.19 0 0 1 3.09 1.5 6.91 6.91 0 0 1 .82 3.39zm7.05-22.57a20.8 20.8 0 0 0-.56-5 9.52 9.52 0 0 0-1.82-3.78 7.78 7.78 0 0 0-3.38-2.38 14.48 14.48 0 0 0-5.24-.82 13.21 13.21 0 0 0-5 .88 8.55 8.55 0 0 0-3.41 2.48 10.34 10.34 0 0 0-1.92 3.82 18.28 18.28 0 0 0-.62 4.89v22.83c0 3.66.87 6.45 2.6 8.39s4.51 2.9 8.33 2.9 6.61-1 8.39-3 2.67-5 2.67-9zm26.61 33.79v-6.59h-13.11v-13.11h11.42v-6.72h-11.42v-12.4h13.11v-6.59h-20.16v45.41zm11.68 0v-19.83H516a5.26 5.26 0 0 1 3.82 1.43c1 1 1.7 2.65 2.18 5.09q.72 3.33 1.37 6.65c.44 2.22.87 4.44 1.31 6.66h7c-.56-2.52-1.1-5-1.6-7.54s-1-5-1.59-7.6a15.44 15.44 0 0 0-2.09-5.35 7.77 7.77 0 0 0-3.85-2.93v-.13a7.91 7.91 0 0 0 3.36-2.84 14.25 14.25 0 0 0 2.18-5.38q.72-3.39 1.44-6.75c.48-2.24 1-4.52 1.44-6.82h-6.59c-.09.39-.26 1.21-.53 2.44s-.53 2.57-.81 4-.57 2.74-.85 4-.47 2.06-.55 2.45q-.79 3.53-2.29 4.89a5.45 5.45 0 0 1-3.85 1.37h-1.43v-19.22h-7.05v45.41zm40.05-38.82v-6.59h-21.65v6.59h7.3v38.82h7.05V152.5zm16.97 27.6a6.58 6.58 0 0 1-.92 3.55 4 4 0 0 1-6.1.07 5.91 5.91 0 0 1-.88-3.17v-22.83a11.78 11.78 0 0 1 .17-1.86 5.8 5.8 0 0 1 .6-1.86 3.87 3.87 0 0 1 1.21-1.37 3.42 3.42 0 0 1 2-.56 3.2 3.2 0 0 1 3.1 1.5 7 7 0 0 1 .82 3.39zm7-22.57a20.83 20.83 0 0 0-.55-5 9.65 9.65 0 0 0-1.82-3.78 7.9 7.9 0 0 0-3.38-2.38 14.52 14.52 0 0 0-5.24-.82 13.21 13.21 0 0 0-5 .88 8.65 8.65 0 0 0-3.42 2.48 10.65 10.65 0 0 0-1.92 3.82 18.29 18.29 0 0 0-.61 4.89v22.83c0 3.66.86 6.45 2.6 8.39s4.51 2.9 8.32 2.9 6.62-1 8.4-3 2.66-5 2.66-9zm19.87 5.21a4.94 4.94 0 0 1-4 1.5h-2.28V152.5h2.21c1.92 0 3.29.46 4.11 1.37s1.24 2.42 1.24 4.5a6.57 6.57 0 0 1-1.28 4.37zm1.5 17.23a7 7 0 0 1-.72 2.48 4.29 4.29 0 0 1-1.56 1.66 5.2 5.2 0 0 1-2.71.62h-2.8v-14.09h2.67q2.94 0 4.11 1.56a8 8 0 0 1 1.17 4.77 26.38 26.38 0 0 1-.19 3.03zm1.66-12.72a7.05 7.05 0 0 0 3.76-3.53 13.13 13.13 0 0 0 1.07-5.48q0-6-2.71-9.16t-8.7-3.17h-9.92v45.41H594q6.27 0 9.3-3.33t3-10.44a16.56 16.56 0 0 0-1.11-6.26 6.27 6.27 0 0 0-4.11-3.72zm-201.67 85.39q0 5.22 2.94 8a11 11 0 0 0 7.94 2.8q5.52 0 8.35-3.29t2.82-10.41a25 25 0 0 0-.19-3.16 14.16 14.16 0 0 0-.66-2.87 8.78 8.78 0 0 0-1.24-2.42 5.38 5.38 0 0 0-1.95-1.66v-.2a5 5 0 0 0 2-1.89 11 11 0 0 0 1.17-2.71 15.78 15.78 0 0 0 .56-2.9c.08-1 .13-1.8.13-2.54q0-12.13-10.9-12.14a10.79 10.79 0 0 0-7.79 2.84 11.53 11.53 0 0 0-3.3 7.93l6.79 1.5a7.89 7.89 0 0 1 1-3.92 3.28 3.28 0 0 1 3-1.56 3.63 3.63 0 0 1 3.07 1.47 6.73 6.73 0 0 1 1.11 4.14 11.24 11.24 0 0 1-.95 5 3.12 3.12 0 0 1-3 1.86h-2.87v6h2.74c2.65 0 4 2.32 4 7a11.06 11.06 0 0 1-1 5.41 3.18 3.18 0 0 1-2.88 1.7 3.64 3.64 0 0 1-2.91-1.21c-.69-.8-1.06-2.21-1.1-4.21zm51.34 10.44l-9.2-45.41h-7.82l-4.57 22.71-4.57 22.7h7.18c.26-1.57.53-3.14.81-4.73s.58-3.16.88-4.73h8.35l1.77 9.46zm-13-34.9l2.96 18.82h-6.2q.84-4.83 1.56-9.49t1.37-9.36zm46.86 34.9v-45.41h-6.59l-6.59 5.33v7.57l6.2-5v37.51zM514.57 227a9.29 9.29 0 0 0-2.75-7.17 10.07 10.07 0 0 0-7.14-2.55 11.23 11.23 0 0 0-3.89.66 9 9 0 0 0-3.14 1.89 8.76 8.76 0 0 0-2.13 3.06 10.39 10.39 0 0 0-.78 4.11v26.88a10.17 10.17 0 0 0 .78 4.08 8.73 8.73 0 0 0 2.13 3 8.65 8.65 0 0 0 3.14 1.86 12 12 0 0 0 3.89.62 11.74 11.74 0 0 0 3.83-.62 8.65 8.65 0 0 0 3.14-1.86 8.73 8.73 0 0 0 2.13-3 10 10 0 0 0 .79-4.08zm-7.05 27.08a2.65 2.65 0 0 1-.81 2 2.94 2.94 0 0 1-2.06.75 3.11 3.11 0 0 1-2.15-.75 2.58 2.58 0 0 1-.85-2v-27.4a2.6 2.6 0 0 1 .85-2.06 3.11 3.11 0 0 1 2.15-.75 2.94 2.94 0 0 1 2.06.75 2.67 2.67 0 0 1 .81 2.06zM537 217.67v26.1q0 3.66-.23 6.1a15.78 15.78 0 0 1-.88 4.14 9 9 0 0 1-1.73 2.87 11.61 11.61 0 0 1-2.76 2.12l2.67 5.22a16.78 16.78 0 0 0 4.57-2.84 11.26 11.26 0 0 0 2.8-4.15 22.84 22.84 0 0 0 1.44-6.27 90.7 90.7 0 0 0 .39-9.21v-17.49h6.85v38.82h7v-45.41zm47.17 45.41v-6.59h-13.11v-13.11h11.42v-6.72h-11.42v-12.4h13.11v-6.59H564v45.41zm23.1-38.82v-6.59h-21.66v6.59h7.3v38.82H600v-38.82z"/></g></g></svg>