<svg xmlns="http://www.w3.org/2000/svg" width="56" height="63" viewBox="0 0 56 63"><defs><style>.cls-1{fill:#fff;fill-rule:evenodd}</style></defs><path id="icon_4" data-name="icon 4" class="cls-1" d="M592.729 1413.04a.946.946 0 0 0-.675-.28l-6.889-.06h-.041a.95.95 0 0 0-.933.93l-.027 2.94-2.557-.08a11.8 11.8 0 0 0 .917-5.95v-.12a12.585 12.585 0 0 0-4.372-9.01 4.135 4.135 0 0 0-2.7-.99c-.15 0-.3.01-.448.02l8.087-11.77c0-.01.009-.01.014-.02l.006-.01.017-.03a2.567 2.567 0 0 0 .085-.2 1.167 1.167 0 0 0 .027-.14.68.68 0 0 0 .011-.1.806.806 0 0 0-.008-.12l-.38.04.378-.06a.84.84 0 0 0-.018-.11.715.715 0 0 0-.042-.12.506.506 0 0 0-.04-.09v-.01l-4.41-7.24a1 1 0 0 0-.117-.16l-.027-.02-.046-.04a1.308 1.308 0 0 0-.126-.1l-.062-.03a.521.521 0 0 0-.154-.06l-.034-.02h-.019l-.186-.03h-16.022a1.121 1.121 0 0 0-.181.03.408.408 0 0 0-.049.01.754.754 0 0 0-.155.07l-.066.03a.982.982 0 0 0-.13.1l-.05.04-.019.02a1.007 1.007 0 0 0-.119.16l-4.392 7.21-.021.04a.463.463 0 0 0-.042.1.5.5 0 0 0-.04.11.84.84 0 0 0-.018.11l.381.03-.383-.01a.806.806 0 0 0-.008.12 1.5 1.5 0 0 0 .038.24c.011.03.025.07.042.11a.717.717 0 0 0 .041.09c0 .01.01.01.015.02v.01l8.286 12.06a4.426 4.426 0 0 0-1.09-.2c-.072 0-.144-.01-.216-.01a4.116 4.116 0 0 0-2.736 1.04 12.427 12.427 0 0 0-2.708 15.35 122.638 122.638 0 0 1-16.408-1.84 3.764 3.764 0 0 0-.818-.08 4.087 4.087 0 0 0-4.009 3.21 4.019 4.019 0 0 0 3.19 4.73c.339.07 2.048.4 4.755.79a3.988 3.988 0 0 0-.992 2.29 4.04 4.04 0 0 0 3.73 4.34c.317.03 1.936.16 4.327.27a3.969 3.969 0 0 0-.153 1.43 4.032 4.032 0 0 0 4.075 3.72c.053 0 .107-.01.16-.01a1.335 1.335 0 0 0 .184-.01c.175-.02 17.392-1.81 27.667-4.17l-.026 3.11a.914.914 0 0 0 .274.66.945.945 0 0 0 .674.28l6.907.06a.934.934 0 0 0 .671-.27.913.913 0 0 0 .286-.66l.188-21.03a.914.914 0 0 0-.271-.66zm-6.805 20.69l.172-19.15 4.985.04-.172 19.16zm-31.792-3.07c.347.01.742.01 1.179.01 4.5 0 12.695-.29 13.042-.31a.938.938 0 0 0 .666-.3.911.911 0 0 0 .255-.67.943.943 0 0 0-.961-.9h-.031c-.084 0-8.5.31-12.989.31-.65 0-1.193-.01-1.612-.02-3.223-.12-5.5-.31-5.749-.33a2.133 2.133 0 0 1 .188-4.26h.18c.064.01.6.05 1.447.11 4.826.33 10.2.44 10.248.44h.029a.952.952 0 0 0 .957-.92.922.922 0 0 0-.267-.67.984.984 0 0 0-.671-.29c-.209 0-5.172-.11-9.785-.41-5.605-.59-9.433-1.35-9.593-1.39a2.135 2.135 0 0 1-1.7-2.52 2.176 2.176 0 0 1 2.134-1.71 2.134 2.134 0 0 1 .435.05 125.172 125.172 0 0 0 18.542 1.94h.05a.934.934 0 0 0 .753-1.5 10.581 10.581 0 0 1 1.437-14.4 2.221 2.221 0 0 1 1.459-.55 2.2 2.2 0 0 1 1.618.71 2.1 2.1 0 0 1-.156 3.01 6.415 6.415 0 0 0-2.175 5.06 6.526 6.526 0 0 0 6.6 6.23c.083 0 .167-.01.252-.01a6.588 6.588 0 0 0 4.589-2.07 6.377 6.377 0 0 0-.486-9.26 2.116 2.116 0 0 1-.2-3.02 2.207 2.207 0 0 1 3.075-.2 10.723 10.723 0 0 1 3.723 7.67v.12c.062 1.57.177 4.48-1.5 6.09a.935.935 0 0 0 .64 1.61l4.4.13-.1 11.18c-9.877 2.33-27.126 4.16-27.856 4.23-.027 0-.055.01-.086.01h-.089a2.141 2.141 0 0 1-2.163-1.98 2.079 2.079 0 0 1 .271-1.22zm14.859-41.57v13.96l-9.592-13.96h9.592zm11.506 0l-9.592 13.96v-13.96h9.595zm-10.549-2.22l-5.511-4.99h11.022zm-2.09 17.89l1.3 1.88a1.113 1.113 0 0 0 .141.17.4.4 0 0 1 .049.04c.038.03.079.05.122.08l.063.03c.046.02.094.04.145.06.018 0 .037.01.058.01a.832.832 0 0 0 .216.03.845.845 0 0 0 .217-.03c.019 0 .038-.01.058-.01.05-.02.1-.04.143-.06l.063-.03a.773.773 0 0 0 .127-.09.152.152 0 0 0 .046-.04.752.752 0 0 0 .14-.16l.772-1.12a4.045 4.045 0 0 0 1.233 1.93 4.532 4.532 0 0 1 .344 6.58 4.715 4.715 0 0 1-3.257 1.47h-.17a4.635 4.635 0 0 1-4.693-4.42 4.533 4.533 0 0 1 1.546-3.59 3.969 3.969 0 0 0 1.337-2.73zm4.536-17.55l5.294-4.8 2.921 4.8h-8.215zm-4.892 0h-8.215l2.92-4.8zm-25.229 13.83l.517.06a1 1 0 0 1 .891.87l.063.51a.96.96 0 0 0 1.9 0l.063-.51a1 1 0 0 1 .891-.87l.517-.06a.94.94 0 0 0 0-1.87l-.517-.06a1.021 1.021 0 0 1-.891-.87l-.063-.51a.96.96 0 0 0-1.9 0l-.063.51a1.021 1.021 0 0 1-.891.87l-.518.06a.94.94 0 0 0 .001 1.87zm33.406 37.83l-.517-.06a1.02 1.02 0 0 1-.891-.88l-.063-.5a.959.959 0 0 0-1.9 0l-.064.5a1.019 1.019 0 0 1-.89.88l-.517.06a.935.935 0 0 0 0 1.86l.518.07a1 1 0 0 1 .89.87l.064.51a.96.96 0 0 0 1.9 0l.063-.51a1 1 0 0 1 .891-.87l.517-.07a.935.935 0 0 0-.001-1.86zm10.865-36.58l.517.06a1 1 0 0 1 .891.87l.063.51a.96.96 0 0 0 1.9 0l.063-.51a1 1 0 0 1 .891-.87l.517-.06a.94.94 0 0 0 0-1.87l-.517-.06a1.011 1.011 0 0 1-.891-.87l-.063-.51a.96.96 0 0 0-1.9 0l-.063.51a1.011 1.011 0 0 1-.891.87l-.517.06a.94.94 0 0 0 0 1.87z" transform="translate(-537 -1380)"/></svg>