<svg xmlns="http://www.w3.org/2000/svg" width="72" height="67" viewBox="0 0 72 67"><defs><style>.cls-1{fill:#3b3b3b;fill-rule:evenodd}</style></defs><path id="icon_2" data-name="icon 2" class="cls-1" d="M930.691 701.264h-31.355c.437-3.014 1.476-10.085 2.289-14.954 1.238-7.414-8.057-10.843-8.151-10.876a1.31 1.31 0 0 0-1.734 1.011l-4.725 27.868a1.309 1.309 0 0 0 1.074 1.507 1.429 1.429 0 0 0 .216.017 1.3 1.3 0 0 0 1.291-1.088l4.442-26.2c5.158 2.652 5.23 5.978 5 7.328-1.073 6.426-2.5 16.407-2.514 16.5v.019c0 .035-.007.071-.008.107v.058c0 .045 0 .09.006.134a.051.051 0 0 1 0 .013c0 .044.013.088.022.13 0 .017.008.034.013.05s.016.06.026.089l.021.057.032.076a.806.806 0 0 0 .068.126c.014.022.034.055.053.082s.038.053.059.077l.048.053.052.054.023.023a23.307 23.307 0 0 1 6.618 14.279h-18.513c-.015-.718-.088-1.661-.226-2.92-.452-4.125-7.57-15.492-10.149-19.5l8.676-10.744v9.589a1.309 1.309 0 0 0 2.618 0v-31.616h43.153a1.307 1.307 0 1 0 0-2.613h-44.462a1.309 1.309 0 0 0-1.309 1.307v19.183l-11.309 14a1.3 1.3 0 0 0-.076 1.535c2.725 4.165 9.881 15.726 10.255 19.149.142 1.294.193 2.119.207 2.636h-1.276a1.309 1.309 0 0 0-1.309 1.306v6.574a1.309 1.309 0 0 0 1.309 1.31H908.5a1.309 1.309 0 0 0 1.309-1.307v-6.574a1.309 1.309 0 0 0-1.309-1.306h-2.312a25.246 25.246 0 0 0-5.436-13.936h.028l3.588 4.5a4.4 4.4 0 0 0 7.482-4.5h18.845a1.307 1.307 0 1 0-.004-2.613zM909.1 704.4a1.786 1.786 0 0 1-1.283 3.028 1.781 1.781 0 0 1-1.4-.675l-2.292-2.877h4.465zm12.952-31.168a1.309 1.309 0 0 0-1.309-1.306h-16.758a1.307 1.307 0 1 0 0 2.613h16.754a1.309 1.309 0 0 0 1.309-1.306zm.624 8.126H908.5a1.307 1.307 0 1 0 0 2.613h14.176a1.307 1.307 0 1 0-.004-2.612zM905.7 693.4h16.968a1.307 1.307 0 1 0 0-2.613H905.7a1.307 1.307 0 1 0 0 2.613zm25.067 23.419l-1.245-.153a4.1 4.1 0 0 1-3.58-3.572l-.153-1.243a.654.654 0 0 0-1.3 0l-.153 1.243a4.1 4.1 0 0 1-3.58 3.572l-1.245.153a.653.653 0 0 0 0 1.3l1.245.152a4.1 4.1 0 0 1 3.58 3.573l.153 1.243a.655.655 0 0 0 1.3 0l.153-1.243a4.1 4.1 0 0 1 3.58-3.573l1.245-.152a.653.653 0 0 0 .004-1.296zm-58.782-37.637a2.051 2.051 0 0 1 1.791-1.787l.709-.087a.653.653 0 0 0 0-1.3l-.709-.087a2.051 2.051 0 0 1-1.791-1.788l-.087-.707a.654.654 0 0 0-1.3 0l-.088.707a2.052 2.052 0 0 1-1.791 1.788l-.709.087a.653.653 0 0 0 0 1.3l.709.087a2.051 2.051 0 0 1 1.791 1.787l.088.707a.654.654 0 0 0 1.3 0zm-4.941 28.9l-.705-.082a2.051 2.051 0 0 1-1.791-1.787l-.087-.707a.654.654 0 0 0-1.3 0l-.088.707a2.051 2.051 0 0 1-1.79 1.787l-.708.087a.653.653 0 0 0 0 1.3l.708.087a2.051 2.051 0 0 1 1.791 1.788l.088.707a.654.654 0 0 0 1.3 0l.087-.707a2.051 2.051 0 0 1 1.791-1.788l.709-.087a.653.653 0 0 0-.001-1.301z" transform="translate(-860 -660)"/></svg>