<svg xmlns="http://www.w3.org/2000/svg" width="55" height="61" viewBox="0 0 55 61"><defs><style>.cls-1{fill:#fff;fill-rule:evenodd}</style></defs><path id="icon_6" data-name="icon 6" class="cls-1" d="M1347.3 1417.43a.94.94 0 0 1 0-1.88h4.4a.94.94 0 0 1 0 1.88h-4.4zm-5.25-2.9a.939.939 0 0 1-.94-.94v-7.86a.938.938 0 0 1 .9-.94 8.681 8.681 0 0 0-2.4-5.14 13.094 13.094 0 0 1 8.4-21.57c.5-.05 1.01-.08 1.51-.08a12.818 12.818 0 0 1 8.7 3.34 13.114 13.114 0 0 1 1.15 18.34 8.711 8.711 0 0 0-2.38 5.11.938.938 0 0 1 .9.94v7.86a.939.939 0 0 1-.94.94h-14.9zm13.97-1.88v-5.98h-13.04v5.98h13.04zm-.91-7.86a10.738 10.738 0 0 1 2.84-6.34 11.217 11.217 0 0 0-.98-15.71 11.024 11.024 0 0 0-7.45-2.86 11.622 11.622 0 0 0-1.31.07 11.222 11.222 0 0 0-7.19 18.47 10.4 10.4 0 0 1 2.87 6.37h2.96c-.75-2.91-2.2-8.9-2.2-11.45a.935.935 0 1 1 1.87 0c0 2.53 1.75 9.46 2.27 11.45h1.42c.52-1.99 2.27-8.93 2.27-11.45a.935.935 0 1 1 1.87 0c0 2.55-1.45 8.54-2.2 11.45h2.96zm2.51-12.82a.939.939 0 0 1-.94-.94 7.2 7.2 0 0 0-7.18-7.19.94.94 0 1 1 0-1.88 9.08 9.08 0 0 1 9.06 9.07.939.939 0 0 1-.94.94zm-22.49 47.03a.937.937 0 0 1-.93-.94v-3.7a.937.937 0 0 1 .93-.94h.78v-1.88l-8.52-6.93a5.1 5.1 0 0 1-1.78-3.03l-3.59-19.81a.926.926 0 0 1 .73-1.09l.36-.07a6.406 6.406 0 0 1 1.31-.14 6.372 6.372 0 0 1 6.27 5.37l1.19 7.44 1.87 1.5a3.537 3.537 0 0 1 1.5-.34c.1 0 .2 0 .3.01a3.485 3.485 0 0 1 2.4 1.25l8.07 9.64a13.6 13.6 0 0 1 3.14 8.08h.68a13.6 13.6 0 0 1 3.14-8.08l8.07-9.64a3.485 3.485 0 0 1 2.4-1.25 2.81 2.81 0 0 1 .29-.01 3.582 3.582 0 0 1 1.51.34l1.87-1.5 1.19-7.44a6.329 6.329 0 0 1 7.58-5.23l.36.07a.926.926 0 0 1 .73 1.09l-3.59 19.81a5.1 5.1 0 0 1-1.78 3.03l-8.52 6.93v1.88h.78a.937.937 0 0 1 .93.94v3.7a.937.937 0 0 1-.93.94h-28.74zm26.08-5.58v-2.33a.934.934 0 0 1 .35-.73l8.86-7.21a3.227 3.227 0 0 0 1.13-1.91l3.42-18.87a2.549 2.549 0 0 0-.39-.02 4.514 4.514 0 0 0-4.42 3.79l-1.25 7.8a.9.9 0 0 1-.34.59l-1.89 1.51a3.529 3.529 0 0 1-.1 3.98l-4.36 6.03a.957.957 0 0 1-.76.39.947.947 0 0 1-.93-.8.938.938 0 0 1 .17-.7l4.36-6.02a1.652 1.652 0 0 0-.26-2.21 1.572 1.572 0 0 0-1.05-.39h-.15a1.663 1.663 0 0 0-1.11.58l-8.07 9.65a11.634 11.634 0 0 0-2.7 6.87h9.49zm-13.93 0a11.634 11.634 0 0 0-2.7-6.87l-8.07-9.65a1.663 1.663 0 0 0-1.11-.58h-.14a1.579 1.579 0 0 0-1.06.39 1.652 1.652 0 0 0-.26 2.21l4.36 6.02a.938.938 0 0 1 .17.7.947.947 0 0 1-.93.8.957.957 0 0 1-.76-.39l-4.36-6.03a3.529 3.529 0 0 1-.1-3.98l-1.89-1.51a.9.9 0 0 1-.34-.59l-1.25-7.8a4.514 4.514 0 0 0-4.42-3.79c-.13 0-.26.01-.39.02l3.42 18.87a3.227 3.227 0 0 0 1.13 1.91l8.86 7.21a.934.934 0 0 1 .35.73v2.33h9.49z" transform="translate(-1322 -1378)"/></svg>