<svg xmlns="http://www.w3.org/2000/svg" width="63" height="58" viewBox="0 0 63 58"><defs><style>.cls-1{fill:#fff;fill-rule:evenodd}</style></defs><path id="icon_5" data-name="icon 5" class="cls-1" d="M971.363 1406.13a1 1 0 0 0 .694-.29l5.156-5.15a7.5 7.5 0 0 0-5.309-12.81.98.98 0 1 0 0 1.96 5.542 5.542 0 0 1 3.92 9.46l-5.156 5.15a.958.958 0 0 0-.288.69.981.981 0 0 0 .288.7 1 1 0 0 0 .695.29zm20.476 6.91l-.276-.42a8.325 8.325 0 0 0-5.524-3.66 8.114 8.114 0 0 0-1.549-.15 8.346 8.346 0 0 0-4.918 1.61l-8.572 6.19-2.013.33a5.709 5.709 0 0 0 .239-2.15 3.064 3.064 0 0 0-.339-1.18l11.052-10.14.027-.03a11.4 11.4 0 1 0-18.121-13.42 11.4 11.4 0 1 0-16.839 14.51l8.493 7.84c-.135 0-.27.01-.4.01a27.931 27.931 0 0 1-2.8-.18c-.382-.03-.775-.05-1.167-.05a16.813 16.813 0 0 0-7.971 2.25 25.842 25.842 0 0 0-6.166 4.73c-.07.08-.14.15-.21.22l-.526-.52a1 1 0 0 0-1.39 0l-3.58 3.58a.971.971 0 0 0 0 1.38l13.927 13.92a.978.978 0 0 0 1.39 0l3.581-3.58a.971.971 0 0 0 0-1.38l-.971-.97a6.374 6.374 0 0 1 4.51-1.86c.224 0 .453.01.677.03a.344.344 0 0 0 .1.01h.044l13.219-.58a11.919 11.919 0 0 0 6.062-1.96l19.731-13.02a.986.986 0 0 0 .28-1.36zm-46.014 17.35l-9.652-9.65c.083-.08.165-.17.247-.26 2.793-2.94 7.794-6.37 12.7-6.37.333 0 .667.02.991.05.941.09 1.946.18 2.984.18.19 0 .38 0 .571-.01l12.449-.42h.037a1.112 1.112 0 0 1 1.122 1.03 3.787 3.787 0 0 1-3.5 4.08l-7.253.54a9.288 9.288 0 0 0-4.522 1.57l-3.374 2.28a.984.984 0 1 0 1.1 1.63l3.373-2.28a7.263 7.263 0 0 1 3.567-1.24l7.253-.54a5.693 5.693 0 0 0 3.863-1.9.866.866 0 0 0 .161.01.829.829 0 0 0 .158-.01l3.453-.57a.915.915 0 0 0 .417-.17l8.757-6.33a6.362 6.362 0 0 1 3.771-1.23 5.974 5.974 0 0 1 1.189.11 6.365 6.365 0 0 1 3.96 2.42l-18.9 12.47a10.039 10.039 0 0 1-5.063 1.64l-13.15.57c-.266-.02-.537-.03-.8-.03a8.331 8.331 0 0 0-5.909 2.43zm5.966-44.44a9.441 9.441 0 0 1 9.108 6.99.985.985 0 0 0 1.9 0 9.434 9.434 0 1 1 15.8 9.09l-11.127 10.21a3.163 3.163 0 0 0-1.322-.3c-.035 0-.071.01-.107.01l-9.747.33-9.993-9.23c-.028-.02-.056-.05-.086-.07a9.421 9.421 0 0 1 5.574-17.03zm-5.69 47.49l-2.191 2.19-12.538-12.53 2.191-2.19zm35.292-.32l-.638-.07a1.472 1.472 0 0 1-1.271-1.28l-.079-.63a.982.982 0 0 0-1.951 0l-.078.63a1.472 1.472 0 0 1-1.271 1.28l-.639.07a.982.982 0 0 0 0 1.95l.639.08a1.462 1.462 0 0 1 1.271 1.27l.078.64a.983.983 0 0 0 1.951 0l.079-.64a1.462 1.462 0 0 1 1.271-1.27l.638-.08a.982.982 0 0 0 0-1.95zm-21.658-49.17l.447.05a.726.726 0 0 1 .635.64l.055.45a.984.984 0 0 0 .976.86.982.982 0 0 0 .975-.87l.055-.44a.726.726 0 0 1 .635-.64l.448-.05a.982.982 0 0 0 0-1.95l-.448-.06a.725.725 0 0 1-.635-.63l-.055-.45a.983.983 0 0 0-1.951 0l-.055.45a.725.725 0 0 1-.635.63l-.447.06a.982.982 0 0 0 0 1.95zm-23.1 25.12l.4.05a.534.534 0 0 1 .468.47l.049.39a.983.983 0 0 0 1.95 0l.049-.39a.534.534 0 0 1 .468-.47l.4-.05a.982.982 0 0 0 0-1.95l-.4-.05a.534.534 0 0 1-.468-.47l-.049-.39a.981.981 0 0 0-1.95 0l-.049.39a.534.534 0 0 1-.468.47l-.4.05a.982.982 0 0 0 .001 1.95z" transform="translate(-929 -1380)"/></svg>