<svg xmlns="http://www.w3.org/2000/svg" width="78" height="76" viewBox="0 0 78 76"><defs><style>.cls-1{fill:#3b3b3b;fill-rule:evenodd}</style></defs><path id="icon_1" data-name="icon 1" class="cls-1" d="M625.637 703.742l-3.9-3.866a1.245 1.245 0 0 0-1.62-.113 7.57 7.57 0 0 0-2.161-6.5l-4.594-4.547v-11.185a1.239 1.239 0 0 0-2.478 0v8.728l-4.184-4.141a7.664 7.664 0 0 0-5.427-2.228 7.779 7.779 0 0 0-3.415.795l-14.491 7.125-5.067-5.01v-6.61h5.08a1.233 1.233 0 0 0 1.109-.679 1.208 1.208 0 0 0-.119-1.285l-14.17-18.659a1.245 1.245 0 0 0-1.98 0l-14.179 18.662a1.208 1.208 0 0 0-.118 1.285 1.233 1.233 0 0 0 1.109.679h5.079v33.437a1.24 1.24 0 0 0 2.479 0v-34.664a1.234 1.234 0 0 0-1.24-1.226h-3.836l11.7-15.395L580.9 673.74h-3.836a1.234 1.234 0 0 0-1.239 1.226v5.383l-2.139-2.117a5.28 5.28 0 0 0-7.406 0 5.151 5.151 0 0 0 0 7.331l19.5 19.3-9.363 2.283a7.555 7.555 0 0 0-5.8 8.065l.129 1.4a1.226 1.226 0 0 0 1.23 1.116h.089l18.872-1.29c.31-.022.625-.033.936-.033a13.635 13.635 0 0 1 8.434 2.953l-1.7 1.686a1.218 1.218 0 0 0 0 1.735l3.906 3.866a1.247 1.247 0 0 0 1.752 0l21.38-21.164a1.217 1.217 0 0 0-.008-1.738zm-37.131 2.986a1.236 1.236 0 0 0 .9-.862 1.217 1.217 0 0 0-.317-1.2l-21.054-20.841a2.716 2.716 0 0 1 0-3.862 2.783 2.783 0 0 1 3.9 0l15.478 15.323a1.251 1.251 0 0 0 1.753 0 1.217 1.217 0 0 0 0-1.734l-3.953-3.913 13.745-6.759a5.28 5.28 0 0 1 2.311-.537 5.19 5.19 0 0 1 3.675 1.507L616.2 695a5.127 5.127 0 0 1 1.457 4.443l-.52 3.253-15.071 14.918a15.9 15.9 0 0 0-10.2-3.661c-.368 0-.74.013-1.105.038l-17.661 1.202-.018-.2a5.114 5.114 0 0 1 3.929-5.46zm5.8-14.518a1.26 1.26 0 0 0 .591-.148l5.069-2.727 3.392 3.357a1.248 1.248 0 0 0 1.753 0 1.218 1.218 0 0 0 0-1.735l-4.047-4.006a1.245 1.245 0 0 0-1.468-.21l-5.882 3.164a1.22 1.22 0 0 0-.5 1.664 1.24 1.24 0 0 0 1.086.641zm1.006-34.771a1.242 1.242 0 0 0 .884-.366l1.835-1.848v16.255a1.239 1.239 0 0 0 2.478 0v-16.255l1.836 1.848a1.247 1.247 0 0 0 1.753.014 1.22 1.22 0 0 0 .014-1.734l-3.958-3.986a1.064 1.064 0 0 0-.094-.084 1.246 1.246 0 0 0-1.58 0 1.264 1.264 0 0 0-.094.085l-3.958 3.986a1.22 1.22 0 0 0 .015 1.735 1.242 1.242 0 0 0 .866.35zm-41.195 48.408a.027.027 0 0 0-.008-.007l-.01-.009c-.024-.023-.048-.046-.074-.067a1.246 1.246 0 0 0-1.584 0c-.026.021-.05.044-.074.067l-.01.009-.007.007-3.959 3.986a1.22 1.22 0 0 0 .016 1.735 1.25 1.25 0 0 0 1.752-.015l1.835-1.848v7.2a1.239 1.239 0 0 0 2.478 0v-7.2l1.836 1.848a1.25 1.25 0 0 0 1.753.014 1.22 1.22 0 0 0 .014-1.734zm27.288-45a1.235 1.235 0 0 0 1.24-1.227v-6.32a1.24 1.24 0 0 0-2.479 0v6.312a1.235 1.235 0 0 0 1.234 1.23zm7.112 21.972a1.234 1.234 0 0 0 1.239-1.226V672.2a1.24 1.24 0 0 0-2.479 0v9.386a1.234 1.234 0 0 0 1.237 1.228zm-39.277 9.2a1.235 1.235 0 0 0 1.239-1.227v-7.212a1.24 1.24 0 0 0-2.479 0v7.209a1.235 1.235 0 0 0 1.237 1.227z" transform="translate(-548 -651)"/></svg>