<svg xmlns="http://www.w3.org/2000/svg" width="79" height="69" viewBox="0 0 79 69"><defs><style>.cls-1{fill:#3b3b3b;fill-rule:evenodd}</style></defs><path id="icon_3" data-name="icon 3" class="cls-1" d="M1236.84 684.39h-17.48l.7-11.483a5.271 5.271 0 0 0-10.5-.924l-.92 8.053a12.341 12.341 0 0 1-11.72-1.534 5.17 5.17 0 0 0-3.5 1.364l-1.44-20.008a5.235 5.235 0 0 0-5.19-4.858 5.226 5.226 0 0 0-5.21 5.521l1.3 23.869h-9.71a1.279 1.279 0 0 0-.23.023 1.747 1.747 0 0 0-.19.059s-.02 0-.02.009l-8.83 3.74-4.09 1.647a1.146 1.146 0 0 0-.72 1.043l-.09.036.09.036a1.144 1.144 0 0 0 .72 1.042l4.09 1.648 8.82 3.739a1.236 1.236 0 0 0 .22.068 1.2 1.2 0 0 0 .23.024h3.8a6.554 6.554 0 0 0-.66 2.2 6.484 6.484 0 0 0 1.48 4.984l7.48 8.943a7.014 7.014 0 0 0 1.07 1.757h-1.51a.694.694 0 0 0-.69.7v7.22a.694.694 0 0 0 .69.7h32.32a.694.694 0 0 0 .69-.7v-7.22a.694.694 0 0 0-.69-.7h-1.46l.75-2.088a30.057 30.057 0 0 0 1.77-10.157l.35-5.637h18.28a1.162 1.162 0 0 0 1.16-1.162v-10.793a1.162 1.162 0 0 0-1.16-1.161zm-5.84 10.79v-8.467h4.69v8.467H1231zm-2.31-8.467v8.467h-3.2v-8.467h3.2zm-18.53 3.6h13.02v1.273h-13.02v-1.276zm0 3.6h13.02v1.273h-13.02v-1.273zm13.02-5.92h-13.02v-.768l.06-.506h12.96v1.274zm-11.33-15.741a2.965 2.965 0 0 1 5.11-1.7 2.937 2.937 0 0 1 .79 2.222l-.71 11.625h-6.56zm-9.75 11.464a2.875 2.875 0 1 1 5.75 0v13.282a2.875 2.875 0 1 1-5.75 0V683.71zm-5.18-2.885a2.882 2.882 0 0 1 2.87 2.885v13.282a2.867 2.867 0 0 1-5.7.451l3-2.312a5.519 5.519 0 0 0-2.6-9.848c-.15-.019-.3-.031-.44-.039v-1.54a2.876 2.876 0 0 1 2.87-2.885zm-4.8 18.129a5.238 5.238 0 0 0 .67 1.189c-.52-.234-1.01-.432-1.45-.6zm-8.48-7.371h-9.31v-1.279h10.96zm4.68-3.6h-13.99v-1.274h15.65zm-4.43-27.592a2.921 2.921 0 0 1 .79-2.162 2.862 2.862 0 0 1 2.11-.91 2.916 2.916 0 0 1 2.89 2.7l1.75 24.364h-6.24zm-18.39 29.672l6.52-2.765v7.289l-6.52-2.764v-1.76zm8.83 3.84h6.28l-1.66 1.273h-4.62v-1.273zm41.57 9.126v.072a27.9 27.9 0 0 1-1.63 9.4l-1.03 2.876h-22.55a4.411 4.411 0 0 1-1.33-.48l-9.8-11.715a4.235 4.235 0 0 1 .75-6.124l11.52-8.853a3.166 3.166 0 0 1 4.45.6 3.194 3.194 0 0 1-.59 4.474l-7.53 5.784a1.163 1.163 0 0 0 .44 2.055c.09.02 8.53 2.047 9.73 7.707a1.154 1.154 0 0 0 2.1.391 1.125 1.125 0 0 0 .16-.874 10.467 10.467 0 0 0-4.31-6.192 5.872 5.872 0 0 1 8.69.044 5.194 5.194 0 0 0 5.16-4.7h6.11zm-18.34-36.826l.75.092a2.178 2.178 0 0 1 1.9 1.908l.09.754a.7.7 0 0 0 .69.612.694.694 0 0 0 .69-.612l.09-.754a2.2 2.2 0 0 1 1.9-1.908l.75-.092a.7.7 0 0 0 0-1.384l-.75-.093a2.2 2.2 0 0 1-1.9-1.907l-.09-.755a.7.7 0 0 0-.69-.612.7.7 0 0 0-.69.612l-.09.755a2.177 2.177 0 0 1-1.9 1.907l-.75.093a.7.7 0 0 0 0 1.382zm31.65 41.073l-.45-.056a1.052 1.052 0 0 1-.92-.924l-.06-.459a.7.7 0 0 0-.69-.612.7.7 0 0 0-.69.612l-.05.459a1.062 1.062 0 0 1-.92.924l-.46.056a.7.7 0 0 0 0 1.384l.46.056a1.062 1.062 0 0 1 .92.924l.05.459a.7.7 0 0 0 .69.612.7.7 0 0 0 .69-.612l.06-.459a1.052 1.052 0 0 1 .92-.924l.45-.056a.7.7 0 0 0 0-1.386zm-.17-34.328l.46.056a1.061 1.061 0 0 1 .92.924l.06.459a.689.689 0 0 0 1.37 0l.06-.459a1.061 1.061 0 0 1 .92-.924l.46-.056a.7.7 0 0 0 0-1.384l-.46-.056a1.062 1.062 0 0 1-.92-.924l-.06-.459a.689.689 0 0 0-1.37 0l-.06.459a1.062 1.062 0 0 1-.92.924l-.46.056a.7.7 0 0 0 0 1.382zM1175.85 714l-.58-.071a1.547 1.547 0 0 1-1.34-1.344l-.07-.585a.689.689 0 0 0-1.37 0l-.08.585a1.526 1.526 0 0 1-1.33 1.344l-.59.071a.7.7 0 0 0 0 1.384l.59.072a1.525 1.525 0 0 1 1.33 1.343l.08.585a.689.689 0 0 0 1.37 0l.07-.585a1.545 1.545 0 0 1 1.34-1.343l.58-.072a.7.7 0 0 0 0-1.384zm-6.92-38.92l.42.051a.893.893 0 0 1 .77.78l.05.417a.7.7 0 0 0 .69.611.694.694 0 0 0 .69-.611l.05-.417a.893.893 0 0 1 .78-.78l.41-.051a.7.7 0 0 0 0-1.384l-.41-.051a.893.893 0 0 1-.78-.781l-.05-.416a.7.7 0 0 0-.69-.612.7.7 0 0 0-.69.612l-.05.417a.893.893 0 0 1-.77.78l-.42.051a.7.7 0 0 0 0 1.387z" transform="translate(-1159 -655)"/></svg>